<?xml version="1.0" encoding="UTF-8" standalone="no"?>
<svg
   id="Layer_1"
   data-name="Layer 1"
   viewBox="0 0 24 24"
   width="512"
   height="512"
   version="1.1"
   sodipodi:docname="arrows-repeat-slash.svg"
   inkscape:version="1.3 (0e150ed6c4, 2023-07-21)"
   xmlns:inkscape="http://www.inkscape.org/namespaces/inkscape"
   xmlns:sodipodi="http://sodipodi.sourceforge.net/DTD/sodipodi-0.dtd"
   xmlns="http://www.w3.org/2000/svg"
   xmlns:svg="http://www.w3.org/2000/svg">
  <defs
     id="defs1" />
  <sodipodi:namedview
     id="namedview1"
     pagecolor="#505050"
     bordercolor="#eeeeee"
     borderopacity="1"
     inkscape:showpageshadow="0"
     inkscape:pageopacity="0"
     inkscape:pagecheckerboard="0"
     inkscape:deskcolor="#505050"
     inkscape:zoom="0.41811832"
     inkscape:cx="-39.462514"
     inkscape:cy="190.13757"
     inkscape:window-width="3440"
     inkscape:window-height="1417"
     inkscape:window-x="1432"
     inkscape:window-y="1065"
     inkscape:window-maximized="1"
     inkscape:current-layer="Layer_1" />
  <path
     d="M 19.914001,0.08596802 18.499969,1.5 21,4.0000305 H 7.9999695 c -0.1378436,0 -0.2748265,0.00351 -0.4109802,0.010437 -0.1361537,0.00693 -0.2714669,0.017263 -0.4057618,0.030945 C 7.0489326,4.0550941 6.9155924,4.0720464 6.7833252,4.0923157 6.651058,4.112585 6.5199022,4.1361233 6.3898315,4.1628113 6.2597609,4.1894992 6.130818,4.2194121 6.0031128,4.2523499 5.8754076,4.2852876 5.7488892,4.3212719 5.6237183,4.3602905 5.4985474,4.3993092 5.3747565,4.4413364 5.2522888,4.4862671 5.1298211,4.5311977 5.0086947,4.5790564 4.8890991,4.6297302 4.7695035,4.680404 4.6514362,4.7338826 4.5348816,4.7901306 4.418327,4.8463786 4.3032556,4.9053571 4.1899109,4.9670105 4.0765662,5.0286639 3.9648854,5.0930223 3.8549194,5.1599121 c -0.020972,0.012757 -0.041044,0.02679 -0.06189,0.039734 L 5.2611694,6.6676941 C 5.3943123,6.5990383 5.5277923,6.5308837 5.6664734,6.4721375 5.8458756,6.3961414 6.0297563,6.3286874 6.2175293,6.2701721 6.4053023,6.2116568 6.5969826,6.1621538 6.7921143,6.1221313 6.9872459,6.0821089 7.1858205,6.0515537 7.3872986,6.0310364 7.5887767,6.0105191 7.7931572,6 7.9999695,6 H 21 l -2.500031,2.5000305 1.414032,1.4139404 3.49997,-3.4999694 c 0.04875,-0.048688 0.09449,-0.099328 0.137146,-0.1516114 0.04266,-0.052284 0.08227,-0.1061902 0.118835,-0.1615905 0.03656,-0.0554 0.07006,-0.1122506 0.100525,-0.1702881 0.03047,-0.058038 0.05793,-0.1173255 0.08231,-0.1775208 0.02438,-0.060195 0.04571,-0.1213235 0.064,-0.183197 0.01828,-0.061873 0.0335,-0.1244278 0.04568,-0.1875 0.01219,-0.063072 0.02128,-0.1266382 0.02737,-0.1904297 0.0061,-0.063791 0.0092,-0.1278633 0.0092,-0.1918945 0,-0.064031 -0.0031,-0.1280116 -0.0092,-0.191803 -0.0061,-0.063791 -0.01519,-0.1273575 -0.02737,-0.1904297 -0.01219,-0.063072 -0.0274,-0.1256265 -0.04568,-0.1875 -0.01828,-0.061873 -0.03962,-0.1230933 -0.064,-0.1832886 -0.02437,-0.060195 -0.05184,-0.1193916 -0.08231,-0.1774292 -0.03047,-0.058037 -0.06396,-0.1148877 -0.100525,-0.170288 -0.03656,-0.0554 -0.07618,-0.1093985 -0.118835,-0.1616822 -0.04266,-0.052284 -0.0884,-0.1028323 -0.137146,-0.1515197 z"
     style="fill:#ffffff"
     id="path5" />
  <path
     d="m 16.564819,17.971436 1.700043,1.699951 c 0.03698,-0.01094 0.07466,-0.02022 0.11142,-0.03168 0.125171,-0.03902 0.248962,-0.08104 0.371429,-0.125976 0.122468,-0.04493 0.243594,-0.09279 0.36319,-0.143463 0.119595,-0.05067 0.237663,-0.104153 0.354217,-0.160401 0.116555,-0.05625 0.231626,-0.115226 0.344971,-0.176879 0.113345,-0.06165 0.225026,-0.126012 0.334992,-0.192902 0.109966,-0.06689 0.218136,-0.136325 0.324554,-0.208283 0.106418,-0.07196 0.211049,-0.146441 0.313751,-0.223297 0.102702,-0.07686 0.203491,-0.156085 0.302307,-0.237671 0.09882,-0.08159 0.195643,-0.165531 0.290406,-0.251678 0.09476,-0.08615 0.187506,-0.174506 0.278045,-0.265045 0.09054,-0.09054 0.178899,-0.183192 0.265045,-0.277954 0.08615,-0.09476 0.170093,-0.191589 0.251679,-0.290406 0.08159,-0.09882 0.160815,-0.199696 0.237671,-0.302398 0.07686,-0.102702 0.151339,-0.207242 0.223297,-0.31366 0.07196,-0.106418 0.141393,-0.21468 0.208282,-0.324646 0.06689,-0.109966 0.131249,-0.221647 0.192902,-0.334991 0.06165,-0.113345 0.120632,-0.228325 0.17688,-0.34488 0.05625,-0.116554 0.109727,-0.234713 0.1604,-0.354309 0.05067,-0.119595 0.09853,-0.24063 0.143463,-0.363098 0.04493,-0.122467 0.08696,-0.24635 0.125977,-0.371521 0.03902,-0.125171 0.075,-0.251689 0.107941,-0.379394 0.03294,-0.127706 0.06276,-0.256557 0.08945,-0.386628 0.02669,-0.13007 0.05023,-0.261317 0.0705,-0.393585 0.02027,-0.132267 0.03731,-0.265607 0.051,-0.399902 0.01368,-0.134295 0.02402,-0.269517 0.03094,-0.40567 C 23.996488,12.274918 24,12.137844 24,12 h -1.999969 c 0,0.206812 -0.01052,0.411193 -0.03104,0.612671 -0.02052,0.201478 -0.05107,0.400053 -0.09109,0.595184 -0.04002,0.195132 -0.08952,0.386812 -0.148041,0.574585 -0.05851,0.187773 -0.12606,0.371654 -0.202056,0.551056 -0.076,0.179402 -0.160496,0.354395 -0.252961,0.524414 -0.09246,0.170019 -0.19283,0.335036 -0.30075,0.49466 -0.107921,0.159623 -0.223339,0.31385 -0.345704,0.462066 -0.122364,0.148217 -0.251746,0.290473 -0.387542,0.42627 -0.135797,0.135797 -0.278053,0.265086 -0.42627,0.387451 -0.148216,0.122365 -0.302351,0.237782 -0.461975,0.345703 -0.159624,0.107921 -0.324732,0.208378 -0.494751,0.300842 -0.170019,0.09247 -0.34492,0.176965 -0.524322,0.252961 -0.179403,0.076 -0.363283,0.14345 -0.551056,0.201965 -0.187773,0.05851 -0.379454,0.108018 -0.574585,0.148041 -0.195132,0.04002 -0.393707,0.07058 -0.595185,0.09109 -0.01575,0.0016 -0.0321,9.9e-4 -0.04788,0.0025 z"
     style="fill:#ffffff"
     id="path4" />
  <path
     d="M 15.768219,19.999969 13.76825,18 H 3 l 2.5000305,-2.500031 -1.414032,-1.41394 -3.49996945,3.49997 c -0.04875,0.04869 -0.0944898,0.09933 -0.13714599,0.151611 -0.0426562,0.05228 -0.082273,0.10619 -0.11883545,0.16159 -0.0365625,0.0554 -0.0700562,0.112251 -0.1005249,0.170289 -0.0304687,0.05804 -0.0579309,0.117325 -0.0823059,0.17752 -0.024375,0.0602 -0.0457141,0.121324 -0.06399536,0.183197 -0.01828124,0.06187 -0.03349733,0.124428 -0.04568482,0.1875 -0.01218749,0.06307 -0.02128052,0.126639 -0.02737427,0.19043 -0.00609374,0.06379 -0.00915527,0.127863 -0.00915527,0.191895 0,0.06403 0.00306153,0.128011 0.00915527,0.191802 0.0060937,0.06379 0.01518678,0.127358 0.02737427,0.19043 0.01218749,0.06307 0.02740358,0.125627 0.04568482,0.1875 0.01828123,0.06187 0.03962038,0.123094 0.06399536,0.183289 0.024375,0.0602 0.0518372,0.119391 0.0823059,0.177429 0.0304687,0.05804 0.0639624,0.114888 0.1005249,0.170288 0.0365625,0.0554 0.0761792,0.109399 0.11883545,0.161682 0.0426562,0.05228 0.088396,0.102832 0.13714599,0.15152 L 4.0859985,23.914032 5.5000305,22.5 3,19.999969 Z"
     style="fill:#ffffff"
     id="path3" />
  <path
     d="M 3.6488342,7.8804932 2.2327881,6.464447 C 2.181933,6.5174095 2.1302096,6.569501 2.0808105,6.6238403 1.9946636,6.7186025 1.9107181,6.8154292 1.8291321,6.9142456 1.7475461,7.013062 1.6683173,7.1139425 1.5914612,7.2166443 1.514605,7.3193461 1.4401215,7.4238856 1.3681641,7.530304 1.2962066,7.6367223 1.2267714,7.744984 1.1598816,7.85495 1.0929917,7.9649159 1.0286334,8.0765967 0.96697998,8.1899414 0.9053266,8.3032861 0.84634812,8.418266 0.7901001,8.5348206 0.73385208,8.6513752 0.68037348,8.7695341 0.62969971,8.8891296 0.57902593,9.0087252 0.53116722,9.1297601 0.48623657,9.2522278 0.44130592,9.3746955 0.39927865,9.4985779 0.36026001,9.6237488 0.32124137,9.7489197 0.28525708,9.8754381 0.25231934,10.003143 c -0.0329378,0.127706 -0.0627591,0.256557 -0.089447,0.386628 -0.026688,0.13007 -0.0502263,0.261317 -0.0704956,0.393585 -0.0202693,0.132267 -0.03731313,0.265607 -0.05099487,0.399902 -0.01368175,0.134295 -0.02401951,0.269517 -0.03094483,0.40567 C 0.0035117,11.725082 0,11.862156 0,12 h 1.9999695 c 0,-0.206812 0.010519,-0.411193 0.031036,-0.612671 0.020517,-0.201478 0.051073,-0.400053 0.091095,-0.595184 0.040023,-0.195132 0.089525,-0.386812 0.1480408,-0.574585 C 2.3286569,10.029787 2.3962025,9.8459061 2.4721985,9.6665039 2.5481945,9.4871017 2.6326942,9.312109 2.7251587,9.1420898 2.8176232,8.9720707 2.9179886,8.8070543 3.0259094,8.6474304 3.1338302,8.4878066 3.2492477,8.3335802 3.3716125,8.1853638 3.4591356,8.07935 3.5543657,7.9802267 3.6488342,7.8804932 Z"
     style="fill:#ffffff"
     id="path2" />
  <rect
     style="fill:#ffffff;fill-opacity:1;stroke-width:1.0796;paint-order:markers stroke fill"
     id="rect1"
     width="31.943302"
     height="1.9976555"
     x="0.9988277"
     y="-0.9988277"
     transform="rotate(45)"
     ry="0" />
</svg>
