<?xml version="1.0" encoding="UTF-8" standalone="no"?>
<svg
   viewBox="0 0 24 24"
   width="512"
   height="512"
   version="1.1"
   id="svg4"
   sodipodi:docname="compress-alt.svg"
   inkscape:version="1.3 (0e150ed6c4, 2023-07-21)"
   xmlns:inkscape="http://www.inkscape.org/namespaces/inkscape"
   xmlns:sodipodi="http://sodipodi.sourceforge.net/DTD/sodipodi-0.dtd"
   xmlns="http://www.w3.org/2000/svg"
   xmlns:svg="http://www.w3.org/2000/svg">
  <defs
     id="defs4" />
  <sodipodi:namedview
     id="namedview4"
     pagecolor="#505050"
     bordercolor="#eeeeee"
     borderopacity="1"
     inkscape:showpageshadow="0"
     inkscape:pageopacity="0"
     inkscape:pagecheckerboard="0"
     inkscape:deskcolor="#505050"
     inkscape:zoom="0.803091"
     inkscape:cx="-216.04027"
     inkscape:cy="133.85781"
     inkscape:window-width="3440"
     inkscape:window-height="1369"
     inkscape:window-x="1432"
     inkscape:window-y="1065"
     inkscape:window-maximized="1"
     inkscape:current-layer="svg4" />
  <g
     id="_01_align_center"
     data-name="01 align center"
     style="fill:#ffffff;fill-opacity:1">
    <path
       d="M1.414,0,0,1.414,4.293,5.707,2,8H7A1,1,0,0,0,8,7V2L5.707,4.293Z"
       id="path1"
       style="fill:#ffffff;fill-opacity:1" />
    <path
       d="M22,16H17a1,1,0,0,0-1,1v5l2.293-2.293L22.586,24,24,22.586l-4.293-4.293Z"
       id="path2"
       style="fill:#ffffff;fill-opacity:1" />
    <path
       d="M17,8h5L19.707,5.707,24,1.414,22.586,0,18.293,4.293,16,2V7A1,1,0,0,0,17,8Z"
       id="path3"
       style="fill:#ffffff;fill-opacity:1" />
    <path
       d="M7,16H2l2.293,2.293L0,22.586,1.414,24l4.293-4.293L8,22V17A1,1,0,0,0,7,16Z"
       id="path4"
       style="fill:#ffffff;fill-opacity:1" />
  </g>
</svg>
