<?xml version="1.0" encoding="UTF-8" standalone="no"?>
<svg
   id="arrow-circle-down"
   viewBox="0 0 24 24"
   width="512"
   height="512"
   version="1.1"
   sodipodi:docname="expand-arrows-alt.svg"
   inkscape:version="1.3 (0e150ed6c4, 2023-07-21)"
   xmlns:inkscape="http://www.inkscape.org/namespaces/inkscape"
   xmlns:sodipodi="http://sodipodi.sourceforge.net/DTD/sodipodi-0.dtd"
   xmlns="http://www.w3.org/2000/svg"
   xmlns:svg="http://www.w3.org/2000/svg">
  <defs
     id="defs1" />
  <sodipodi:namedview
     id="namedview1"
     pagecolor="#505050"
     bordercolor="#eeeeee"
     borderopacity="1"
     inkscape:showpageshadow="0"
     inkscape:pageopacity="0"
     inkscape:pagecheckerboard="0"
     inkscape:deskcolor="#505050"
     inkscape:zoom="0.803091"
     inkscape:cx="-11.829295"
     inkscape:cy="262.11226"
     inkscape:window-width="3440"
     inkscape:window-height="1369"
     inkscape:window-x="1432"
     inkscape:window-y="1065"
     inkscape:window-maximized="1"
     inkscape:current-layer="arrow-circle-down" />
  <path
     d="M20.718,4.7,24,8V1a1,1,0,0,0-1-1H16.048l3.261,3.28L11.986,10.6l-7.3-7.3L8,0H1A1,1,0,0,0,0,1V7.952L3.263,4.708l7.309,7.309L3.285,19.3,0,16v7a1,1,0,0,0,1,1H7.952L4.694,20.723l7.292-7.292,7.3,7.3L16,24h7a1,1,0,0,0,1-1V16.048l-3.294,3.274-7.306-7.3Z"
     id="path1"
     style="fill:#ffffff;fill-opacity:1" />
</svg>
