<?xml version="1.0" encoding="UTF-8" standalone="no"?>
<svg
   id="Layer_1"
   data-name="Layer 1"
   viewBox="0 0 24 24"
   version="1.1"
   sodipodi:docname="seek-backward.svg"
   inkscape:version="1.3 (0e150ed6c4, 2023-07-21)"
   xmlns:inkscape="http://www.inkscape.org/namespaces/inkscape"
   xmlns:sodipodi="http://sodipodi.sourceforge.net/DTD/sodipodi-0.dtd"
   xmlns="http://www.w3.org/2000/svg"
   xmlns:svg="http://www.w3.org/2000/svg">
  <defs
     id="defs1" />
  <sodipodi:namedview
     id="namedview1"
     pagecolor="#505050"
     bordercolor="#eeeeee"
     borderopacity="1"
     inkscape:showpageshadow="0"
     inkscape:pageopacity="0"
     inkscape:pagecheckerboard="0"
     inkscape:deskcolor="#505050"
     inkscape:zoom="34.265216"
     inkscape:cx="14.781754"
     inkscape:cy="10.520873"
     inkscape:window-width="3440"
     inkscape:window-height="1417"
     inkscape:window-x="1432"
     inkscape:window-y="1065"
     inkscape:window-maximized="1"
     inkscape:current-layer="Layer_1" />
  <path
     d="m 11.5,6 c -0.21725,0 -0.433009,0.00566 -0.648437,0.017578 -0.215429,0.011919 -0.431317,0.02915 -0.644532,0.052734 -0.2132144,0.023584 -0.4241572,0.05485 -0.6347654,0.089844 C 9.3616574,6.1951499 9.1529217,6.2351016 8.9453125,6.28125 8.7377033,6.3273984 8.5303894,6.3784986 8.3261719,6.4355469 8.1219543,6.4925952 7.9191834,6.5553536 7.71875,6.6230469 7.5183166,6.6907402 7.3212566,6.7637135 7.125,6.8417969 6.9287434,6.9198803 6.7346561,7.0035782 6.5429687,7.0917969 6.3512814,7.1800155 6.1613348,7.2729947 5.9746094,7.3710937 5.787884,7.4691928 5.6032459,7.571963 5.421875,7.6796875 5.2405041,7.787412 5.0623426,7.900483 4.8867187,8.0175781 4.7110949,8.1346732 4.5386248,8.2566017 4.3691406,8.3828125 4.1996564,8.5090233 4.0340457,8.6383659 3.8710938,8.7734375 3.7081418,8.9085091 3.5486053,9.0477287 3.3925781,9.1914063 3.2365509,9.3350838 3.0842567,9.482737 2.9355469,9.6347656 2.7868371,9.7867943 2.6409999,9.9433908 2.5,10.103516 V 7 h -2 v 5 c 0,0.06894 0.002927,0.137919 0.009766,0.205078 0.006839,0.06716 0.0179092,0.132222 0.03125,0.197266 0.0133408,0.06504 0.029323,0.128815 0.0488281,0.191406 0.0195051,0.06259 0.0430274,0.123793 0.0683594,0.183594 0.025332,0.0598 0.0531629,0.119108 0.0839844,0.175781 0.0308215,0.05667 0.0636358,0.110855 0.0996094,0.164063 0.0359736,0.05321 0.0744461,0.104891 0.11523437,0.154296 0.0407883,0.04941 0.0836406,0.09731 0.12890625,0.142579 0.045266,0.04526 0.093173,0.08812 0.1425781,0.128906 0.049405,0.04079 0.1010889,0.07926 0.1542969,0.115234 0.053208,0.03597 0.1073895,0.06879 0.1640625,0.09961 0.056673,0.03082 0.1159805,0.05865 0.1757812,0.08398 0.059801,0.02533 0.1210028,0.04885 0.1835938,0.06836 0.062591,0.0195 0.1263624,0.03549 0.1914063,0.04883 0.065044,0.01334 0.1301062,0.02441 0.1972656,0.03125 C 2.3620812,13.997073 2.4310626,14 2.5,14 h 5 V 12 H 3.5097656 C 3.6270155,11.844375 3.7475382,11.692761 3.8730469,11.544922 3.9985555,11.397083 4.1283869,11.253076 4.2617187,11.113281 4.3950506,10.973486 4.5311554,10.838523 4.671875,10.707031 4.8125946,10.57554 4.957797,10.447148 5.1054687,10.324219 5.2531405,10.201289 5.4044054,10.082859 5.5585937,9.96875 5.7127821,9.8546412 5.8690275,9.7456542 6.0292969,9.640625 6.1895662,9.5355958 6.3536164,9.4355346 6.5195312,9.3398438 6.6854461,9.2441529 6.8542658,9.1524999 7.0253906,9.0664063 7.1965155,8.9803126 7.3690226,8.8985033 7.5449219,8.8222656 7.7208211,8.7460279 7.89984,8.675498 8.0800781,8.609375 8.2603162,8.543252 8.4428117,8.4815307 8.6269531,8.4257813 8.8110945,8.3700318 8.9979377,8.3205078 9.1855469,8.2753906 9.3731561,8.2302735 9.5613117,8.190476 9.7519531,8.15625 9.9425945,8.122024 10.134887,8.0933886 10.328125,8.0703125 10.521363,8.0472364 10.714757,8.0292456 10.910156,8.0175781 11.105555,8.0059107 11.302875,8 11.5,8 c 0.172312,0 0.343473,0.00502 0.513672,0.013672 0.170199,0.00866 0.339938,0.020008 0.507812,0.037109 0.167875,0.017101 0.334661,0.039118 0.5,0.064453 0.16534,0.025335 0.329595,0.054532 0.492188,0.087891 0.162592,0.033358 0.322787,0.070158 0.482422,0.1113281 0.159635,0.04117 0.318143,0.087948 0.474609,0.1367188 0.156467,0.048771 0.311757,0.100089 0.464844,0.15625 0.153087,0.056161 0.303629,0.1163477 0.453125,0.1796875 0.149496,0.06334 0.297665,0.1308644 0.443359,0.2011719 0.145694,0.070307 0.288006,0.1436389 0.429688,0.2207031 0.141681,0.077064 0.282464,0.1566246 0.419922,0.2402344 0.137457,0.08361 0.273227,0.1717745 0.40625,0.2617187 0.133022,0.089944 0.262248,0.181276 0.390625,0.2773438 0.128376,0.096068 0.255387,0.1968477 0.378906,0.2988277 0.123519,0.10198 0.24483,0.206772 0.363281,0.314454 0.118451,0.107681 0.234485,0.216906 0.347656,0.330078 0.113172,0.113171 0.222397,0.229205 0.330078,0.347656 0.107682,0.118451 0.212474,0.239762 0.314454,0.363281 0.10198,0.123519 0.20276,0.25053 0.298828,0.378906 0.09607,0.128377 0.187399,0.257603 0.277343,0.390625 0.08995,0.133023 0.17811,0.268793 0.261719,0.40625 0.08361,0.137458 0.16317,0.278241 0.240235,0.419922 0.07706,0.141682 0.150395,0.283994 0.220703,0.429688 0.05541,0.114833 0.107102,0.2324 0.158203,0.349609 h 2.148437 c -0.01625,-0.04604 -0.03008,-0.09289 -0.04687,-0.138672 -0.06739,-0.183705 -0.140791,-0.365525 -0.216797,-0.544922 -0.07601,-0.179396 -0.155867,-0.356416 -0.240234,-0.53125 -0.08437,-0.174833 -0.17315,-0.34756 -0.265625,-0.517578 -0.09248,-0.170018 -0.188733,-0.338957 -0.289062,-0.503906 -0.10033,-0.164949 -0.204569,-0.326702 -0.3125,-0.486328 C 21.339335,11.135296 21.228561,10.978269 21.113281,10.824219 20.998002,10.670168 20.878234,10.519316 20.755859,10.371094 20.633485,10.222872 20.508122,10.077687 20.378906,9.9355469 20.24969,9.793407 20.116273,9.6553358 19.980469,9.5195313 19.844664,9.3837267 19.706593,9.2503098 19.564453,9.1210938 19.422313,8.9918777 19.277128,8.8665149 19.128906,8.7441406 18.980684,8.6217664 18.829832,8.501998 18.675781,8.3867188 18.521731,8.2714395 18.364704,8.1606654 18.205078,8.0527344 18.045452,7.9448033 17.883699,7.840564 17.71875,7.7402344 17.553801,7.6399048 17.384862,7.5436468 17.214844,7.4511719 17.044826,7.358697 16.872099,7.2699138 16.697266,7.1855469 16.522432,7.1011799 16.345412,7.0213183 16.166016,6.9453125 15.986619,6.8693067 15.804799,6.795907 15.621094,6.7285156 15.437388,6.6611242 15.252215,6.5995394 15.064453,6.5410156 14.876691,6.4824919 14.687659,6.4283091 14.496094,6.3789062 14.304529,6.3295034 14.11113,6.2841694 13.916016,6.2441406 13.720901,6.2041119 13.52263,6.1690733 13.324219,6.1386719 13.125808,6.1082704 12.926064,6.0830209 12.724609,6.0625 12.523155,6.0419791 12.321432,6.026012 12.117188,6.015625 11.912943,6.005238 11.706781,6 11.5,6 Z"
     style="fill:#ffffff"
     id="path2" />
</svg>
