<?xml version="1.0" encoding="UTF-8" standalone="no"?>
<svg
   id="Layer_1"
   data-name="Layer 1"
   viewBox="0 0 24 24"
   version="1.1"
   sodipodi:docname="seek-forward.svg"
   inkscape:version="1.3 (0e150ed6c4, 2023-07-21)"
   xmlns:inkscape="http://www.inkscape.org/namespaces/inkscape"
   xmlns:sodipodi="http://sodipodi.sourceforge.net/DTD/sodipodi-0.dtd"
   xmlns="http://www.w3.org/2000/svg"
   xmlns:svg="http://www.w3.org/2000/svg">
  <defs
     id="defs1" />
  <sodipodi:namedview
     id="namedview1"
     pagecolor="#505050"
     bordercolor="#eeeeee"
     borderopacity="1"
     inkscape:showpageshadow="0"
     inkscape:pageopacity="0"
     inkscape:pagecheckerboard="0"
     inkscape:deskcolor="#505050"
     inkscape:zoom="32"
     inkscape:cx="13.671875"
     inkscape:cy="14.390625"
     inkscape:window-width="3440"
     inkscape:window-height="1417"
     inkscape:window-x="1432"
     inkscape:window-y="1065"
     inkscape:window-maximized="1"
     inkscape:current-layer="Layer_1" />
  <path
     d="m 12.5,6 c -0.206781,0 -0.412943,0.00524 -0.617187,0.015625 -0.204245,0.010387 -0.405968,0.026354 -0.607422,0.046875 -0.201455,0.020521 -0.401199,0.04577 -0.59961,0.076172 -0.198411,0.030401 -0.396682,0.06544 -0.591797,0.1054687 C 9.8888698,6.2841694 9.6954711,6.3295034 9.5039063,6.3789062 9.3123414,6.4283091 9.1233088,6.4824919 8.9355469,6.5410156 8.747785,6.5995394 8.562612,6.6611242 8.3789063,6.7285156 8.1952005,6.795907 8.0133807,6.8693067 7.8339844,6.9453125 7.6545881,7.0213183 7.477568,7.1011799 7.3027344,7.1855469 7.1279007,7.2699138 6.955174,7.358697 6.7851562,7.4511719 6.6151385,7.5436468 6.4461987,7.6399048 6.28125,7.7402344 6.1163013,7.840564 5.9545482,7.9448033 5.7949219,8.0527344 5.6352956,8.1606654 5.4782695,8.2714395 5.3242187,8.3867188 5.170168,8.501998 5.0193156,8.6217664 4.8710937,8.7441406 4.7228719,8.8665149 4.5776867,8.9918777 4.4355469,9.1210938 4.293407,9.2503098 4.1553358,9.3837267 4.0195312,9.5195313 3.8837267,9.6553358 3.7503098,9.793407 3.6210938,9.9355469 3.4918777,10.077687 3.3665149,10.222872 3.2441406,10.371094 3.1217664,10.519316 3.001998,10.670168 2.8867188,10.824219 c -0.1152793,0.15405 -0.2260534,0.311077 -0.3339844,0.470703 -0.1079311,0.159626 -0.2121704,0.321379 -0.3125,0.486328 -0.1003296,0.164949 -0.1965876,0.333888 -0.2890625,0.503906 -0.092475,0.170018 -0.1812581,0.342745 -0.265625,0.517578 -0.084367,0.174834 -0.1642286,0.351854 -0.2402344,0.53125 -0.076006,0.179397 -0.1494055,0.361217 -0.2167969,0.544922 -0.01559,0.0425 -0.027848,0.08619 -0.042969,0.128907 h 2.1484375 c 0.049817,-0.113938 0.1003991,-0.228155 0.1542969,-0.339844 0.070307,-0.145694 0.1436389,-0.288006 0.2207031,-0.429688 0.077064,-0.141681 0.1566246,-0.282464 0.2402344,-0.419922 0.08361,-0.137457 0.1717745,-0.273227 0.2617187,-0.40625 0.089944,-0.133022 0.181276,-0.262248 0.2773437,-0.390625 0.096068,-0.128376 0.1968481,-0.255387 0.2988282,-0.378906 0.1019801,-0.123519 0.2067716,-0.24483 0.3144531,-0.363281 0.1076815,-0.118451 0.2169064,-0.234485 0.3300781,-0.347656 0.1131718,-0.113172 0.2292053,-0.222397 0.3476563,-0.330078 0.118451,-0.107682 0.2397621,-0.212474 0.3632812,-0.314454 0.1235192,-0.10198 0.25053,-0.20276 0.3789063,-0.2988277 C 6.6498607,9.8922135 6.779087,9.8008817 6.9121094,9.7109375 7.0451317,9.6209933 7.1809021,9.5328285 7.3183594,9.4492188 7.4558167,9.365609 7.5966,9.2860485 7.7382812,9.2089844 7.8799625,9.1319202 8.0222746,9.0585887 8.1679688,8.9882813 8.3136629,8.9179738 8.4618322,8.8504492 8.6113281,8.7871094 c 0.149496,-0.06334 0.3000383,-0.1235265 0.453125,-0.1796875 0.1530867,-0.056161 0.3083774,-0.1074788 0.4648438,-0.15625 0.1564664,-0.048771 0.3149743,-0.095548 0.4746091,-0.1367188 0.159635,-0.04117 0.31983,-0.07797 0.482422,-0.1113281 0.162593,-0.033358 0.326848,-0.062555 0.492188,-0.087891 0.165339,-0.025335 0.332125,-0.047352 0.5,-0.064453 0.167874,-0.017101 0.337613,-0.028453 0.507812,-0.037109 C 12.156527,8.0050157 12.327688,8 12.5,8 c 0.197125,0 0.394445,0.00591 0.589844,0.017578 0.195399,0.011667 0.388793,0.029658 0.582031,0.052734 0.193238,0.023076 0.38553,0.051711 0.576172,0.085937 0.190641,0.034226 0.378797,0.074023 0.566406,0.1191406 0.187609,0.045117 0.374452,0.094641 0.558594,0.1503907 0.184141,0.055749 0.366637,0.1174707 0.546875,0.1835937 0.180238,0.066123 0.359257,0.1366529 0.535156,0.2128906 0.175899,0.076238 0.348407,0.158047 0.519531,0.2441407 0.171125,0.086094 0.339945,0.1777466 0.50586,0.2734375 0.165915,0.095691 0.329965,0.195752 0.490234,0.3007812 0.160269,0.1050292 0.316515,0.2140162 0.470703,0.328125 0.154189,0.114109 0.305454,0.232539 0.453125,0.355469 0.147672,0.122929 0.292874,0.251321 0.433594,0.382812 0.14072,0.131492 0.276824,0.266455 0.410156,0.40625 0.133332,0.139795 0.263163,0.283802 0.388672,0.431641 0.125509,0.147839 0.246031,0.299453 0.363281,0.455078 H 16.5 v 2 h 5 c 0.06894,0 0.137919,-0.0029 0.205078,-0.0098 0.06716,-0.0068 0.132222,-0.01791 0.197266,-0.03125 0.06504,-0.01334 0.128815,-0.02932 0.191406,-0.04883 0.06259,-0.01951 0.123793,-0.04303 0.183594,-0.06836 0.0598,-0.02533 0.119108,-0.05316 0.175781,-0.08398 0.05667,-0.03082 0.110855,-0.06364 0.164062,-0.09961 0.05321,-0.03597 0.104892,-0.07445 0.154297,-0.115234 0.04941,-0.04079 0.09731,-0.08364 0.142578,-0.128906 0.04527,-0.04527 0.08812,-0.09317 0.128907,-0.142579 0.04079,-0.0494 0.07926,-0.101089 0.115234,-0.154296 0.03597,-0.05321 0.06879,-0.10739 0.09961,-0.164063 0.03082,-0.05667 0.05865,-0.115981 0.08398,-0.175781 0.02533,-0.0598 0.04885,-0.121003 0.06836,-0.183594 0.0195,-0.06259 0.03549,-0.126362 0.04883,-0.191406 0.01334,-0.06504 0.02441,-0.130107 0.03125,-0.197266 C 23.497073,12.137919 23.5,12.068937 23.5,12 V 7 h -2 v 3.103516 C 21.359,9.9433908 21.213163,9.7867943 21.064453,9.6347656 20.915743,9.482737 20.763449,9.3350838 20.607422,9.1914063 20.451395,9.0477287 20.291858,8.9085091 20.128906,8.7734375 19.965954,8.6383659 19.800344,8.5090233 19.630859,8.3828125 19.461375,8.2566017 19.288905,8.1346732 19.113281,8.0175781 18.937657,7.900483 18.759496,7.787412 18.578125,7.6796875 18.396754,7.571963 18.212116,7.4691928 18.025391,7.3710937 17.838665,7.2729947 17.648719,7.1800155 17.457031,7.0917969 17.265344,7.0035782 17.071257,6.9198803 16.875,6.8417969 16.678743,6.7637135 16.481683,6.6907402 16.28125,6.6230469 16.080817,6.5553536 15.878046,6.4925952 15.673828,6.4355469 15.469611,6.3784986 15.262297,6.3273984 15.054688,6.28125 14.847078,6.2351016 14.638343,6.1951499 14.427734,6.1601562 14.217126,6.1251626 14.006183,6.0938965 13.792969,6.0703125 13.579754,6.0467285 13.363866,6.0294975 13.148438,6.0175781 12.933009,6.0056587 12.71725,6 12.5,6 Z"
     style="fill:#ffffff"
     id="path2" />
</svg>
