<?xml version="1.0" encoding="UTF-8" standalone="no"?>
<svg
   viewBox="0 0 24 24"
   width="512"
   height="512"
   version="1.1"
   id="svg3"
   sodipodi:docname="volume.svg"
   inkscape:version="1.3 (0e150ed6c4, 2023-07-21)"
   xmlns:inkscape="http://www.inkscape.org/namespaces/inkscape"
   xmlns:sodipodi="http://sodipodi.sourceforge.net/DTD/sodipodi-0.dtd"
   xmlns="http://www.w3.org/2000/svg"
   xmlns:svg="http://www.w3.org/2000/svg">
  <defs
     id="defs3" />
  <sodipodi:namedview
     id="namedview3"
     pagecolor="#505050"
     bordercolor="#eeeeee"
     borderopacity="1"
     inkscape:showpageshadow="0"
     inkscape:pageopacity="0"
     inkscape:pagecheckerboard="0"
     inkscape:deskcolor="#505050"
     inkscape:zoom="0.803091"
     inkscape:cx="92.766573"
     inkscape:cy="293.24199"
     inkscape:window-width="3440"
     inkscape:window-height="1369"
     inkscape:window-x="1432"
     inkscape:window-y="1065"
     inkscape:window-maximized="1"
     inkscape:current-layer="svg3" />
  <g
     id="_01_align_center"
     data-name="01 align center"
     style="fill:#ffffff;fill-opacity:1">
    <path
       d="M2,5.99a2,2,0,0,0-2,2v8.014a2,2,0,0,0,2,2H4.8L12,24V0L4.8,5.99Zm8-1.722V19.729L5.525,16.007H2V7.993H5.525Z"
       id="path1"
       style="fill:#ffffff;fill-opacity:1" />
    <path
       d="M20,12a5.009,5.009,0,0,0-5-5.008H14v2h1a3.005,3.005,0,0,1,0,6.01H14v2h1A5.01,5.01,0,0,0,20,12Z"
       id="path2"
       style="fill:#ffffff;fill-opacity:1" />
    <path
       d="M15,2.985H14v2h1a7.012,7.012,0,0,1,0,14.024H14v2h1a9.015,9.015,0,0,0,0-18.03Z"
       id="path3"
       style="fill:#ffffff;fill-opacity:1" />
  </g>
</svg>
