<?xml version="1.0" encoding="UTF-8" standalone="no"?>
<svg
   id="Layer_1"
   data-name="Layer 1"
   viewBox="0 0 24 24"
   width="512"
   height="512"
   version="1.1"
   sodipodi:docname="volume-mute.svg"
   inkscape:version="1.3 (0e150ed6c4, 2023-07-21)"
   xmlns:inkscape="http://www.inkscape.org/namespaces/inkscape"
   xmlns:sodipodi="http://sodipodi.sourceforge.net/DTD/sodipodi-0.dtd"
   xmlns="http://www.w3.org/2000/svg"
   xmlns:svg="http://www.w3.org/2000/svg">
  <defs
     id="defs1" />
  <sodipodi:namedview
     id="namedview1"
     pagecolor="#505050"
     bordercolor="#eeeeee"
     borderopacity="1"
     inkscape:showpageshadow="0"
     inkscape:pageopacity="0"
     inkscape:pagecheckerboard="0"
     inkscape:deskcolor="#505050"
     inkscape:zoom="1.1357422"
     inkscape:cx="164.2098"
     inkscape:cy="141.31728"
     inkscape:window-width="3440"
     inkscape:window-height="1369"
     inkscape:window-x="1432"
     inkscape:window-y="1065"
     inkscape:window-maximized="1"
     inkscape:current-layer="Layer_1" />
  <path
     d="m2,6c-1.103,0-2,.897-2,2v8c0,1.103.897,2,2,2h2.644l7.356,6.013V.037l-7.354,5.963h-2.646Zm8-1.767v15.562l-4.644-3.795h-3.356v-8h3.354l4.646-3.767Zm10.439,7.767l3.293,3.293-1.414,1.414-3.293-3.293-3.293,3.293-1.414-1.414,3.293-3.293-3.293-3.293,1.414-1.414,3.293,3.293,3.293-3.293,1.414,1.414-3.293,3.293Z"
     id="path1"
     style="fill:#ffffff;fill-opacity:1" />
</svg>
