<?xml version="1.0" encoding="UTF-8" standalone="no"?>
<svg
   viewBox="0 0 24 24"
   width="512"
   height="512"
   version="1.1"
   id="svg4"
   sodipodi:docname="compress.svg"
   inkscape:version="1.3 (0e150ed6c4, 2023-07-21)"
   xmlns:inkscape="http://www.inkscape.org/namespaces/inkscape"
   xmlns:sodipodi="http://sodipodi.sourceforge.net/DTD/sodipodi-0.dtd"
   xmlns="http://www.w3.org/2000/svg"
   xmlns:svg="http://www.w3.org/2000/svg">
  <defs
     id="defs4" />
  <sodipodi:namedview
     id="namedview4"
     pagecolor="#505050"
     bordercolor="#eeeeee"
     borderopacity="1"
     inkscape:showpageshadow="0"
     inkscape:pageopacity="0"
     inkscape:pagecheckerboard="0"
     inkscape:deskcolor="#505050"
     inkscape:zoom="1.606182"
     inkscape:cx="203.89968"
     inkscape:cy="311.60852"
     inkscape:window-width="3440"
     inkscape:window-height="1369"
     inkscape:window-x="1432"
     inkscape:window-y="1065"
     inkscape:window-maximized="1"
     inkscape:current-layer="svg4" />
  <g
     id="_01_align_center"
     data-name="01 align center"
     style="fill:#ffffff;fill-opacity:1">
    <path
       d="M6,5A1,1,0,0,1,5,6H0V8H5A3,3,0,0,0,8,5V0H6Z"
       id="path1"
       style="fill:#ffffff;fill-opacity:1" />
    <path
       d="M16,19v5h2V19a1,1,0,0,1,1-1h5V16H19A3,3,0,0,0,16,19Z"
       id="path2"
       style="fill:#ffffff;fill-opacity:1" />
    <path
       d="M19,6a1,1,0,0,1-1-1V0H16V5a3,3,0,0,0,3,3h5V6Z"
       id="path3"
       style="fill:#ffffff;fill-opacity:1" />
    <path
       d="M5,16H0v2H5a1,1,0,0,1,1,1v5H8V19A3,3,0,0,0,5,16Z"
       id="path4"
       style="fill:#ffffff;fill-opacity:1" />
  </g>
</svg>
