<?xml version="1.0" encoding="UTF-8" standalone="no"?>
<svg
   id="arrow-circle-down"
   viewBox="0 0 24 24"
   width="512"
   height="512"
   version="1.1"
   sodipodi:docname="expand-alt.svg"
   inkscape:version="1.3 (0e150ed6c4, 2023-07-21)"
   xmlns:inkscape="http://www.inkscape.org/namespaces/inkscape"
   xmlns:sodipodi="http://sodipodi.sourceforge.net/DTD/sodipodi-0.dtd"
   xmlns="http://www.w3.org/2000/svg"
   xmlns:svg="http://www.w3.org/2000/svg">
  <defs
     id="defs1">
    <inkscape:path-effect
       effect="fillet_chamfer"
       id="path-effect6"
       is_visible="true"
       lpeversion="1"
       nodesatellites_param="F,0,0,1,0,2.6334729,0,1 @ F,0,0,1,0,2.6334729,0,1 @ F,0,0,1,0,2.6334729,0,1 @ F,0,0,1,0,2.6334729,0,1 | F,0,1,1,0,0.95562186,0,1 @ F,0,1,1,0,0.95562186,0,1 @ F,0,0,1,0,0.95562186,0,1 @ F,0,1,1,0,0.95562186,0,1"
       radius="0"
       unit="px"
       method="auto"
       mode="F"
       chamfer_steps="1"
       flexible="false"
       use_knot_distance="true"
       apply_no_radius="true"
       apply_with_radius="true"
       only_selected="false"
       hide_knots="false" />
  </defs>
  <sodipodi:namedview
     id="namedview1"
     pagecolor="#505050"
     bordercolor="#eeeeee"
     borderopacity="1"
     inkscape:showpageshadow="0"
     inkscape:pageopacity="0"
     inkscape:pagecheckerboard="0"
     inkscape:deskcolor="#505050"
     inkscape:zoom="0.56787109"
     inkscape:cx="390.05331"
     inkscape:cy="386.53139"
     inkscape:window-width="3440"
     inkscape:window-height="1417"
     inkscape:window-x="1432"
     inkscape:window-y="1065"
     inkscape:window-maximized="1"
     inkscape:current-layer="arrow-circle-down" />
  <path
     d="m 14.925618,16.864687 4.370193,-4.370193 c 0.344798,-0.344798 0.344798,-0.903827 0,-1.248626 L 14.955584,6.905642 c -0.0097,3.319684 -0.02089,6.639359 -0.02997,9.959045 z"
     id="path1"
     style="fill:#ffffff;fill-opacity:1;stroke-width:0.882912"
     sodipodi:nodetypes="csscc" />
  <path
     d="m 9.7289766,16.83903 -4.370193,-4.370193 c -0.3447978,-0.344798 -0.3447978,-0.903827 0,-1.248626 l 4.340227,-4.3402265 c 0.0097,3.3196845 0.02089,6.6393595 0.02997,9.9590455 z"
     id="path1-1"
     style="fill:#ffffff;fill-opacity:1;stroke-width:0.882912"
     sodipodi:nodetypes="csscc" />
  <path
     d="M 0,2.6334729 V 21.366527 A 2.6334729,2.6334729 45 0 0 2.6334729,24 H 21.366527 A 2.6334729,2.6334729 135 0 0 24,21.366527 V 2.6334729 A 2.6334729,2.6334729 45 0 0 21.366527,0 H 2.6334729 A 2.6334729,2.6334729 135 0 0 0,2.6334729 Z M 2.9243719,1.96875 H 21.075628 A 0.95562186,0.95562186 45 0 1 22.03125,2.9243719 V 21.075628 A 0.95562186,0.95562186 135 0 1 21.075628,22.03125 H 2.9243719 A 0.95562186,0.95562186 45 0 1 1.96875,21.075628 V 2.9243719 A 0.95562186,0.95562186 135 0 1 2.9243719,1.96875 Z"
     style="fill:#ffffff;stroke-width:0.143127;stroke-miterlimit:100"
     id="path2"
     inkscape:path-effect="#path-effect6"
     inkscape:original-d="M 0,0 V 24 H 24 V 0 Z m 1.96875,1.96875 h 20.0625 v 20.0625 H 1.96875 Z" />
  <rect
     style="fill:#ffffff;fill-opacity:1;stroke:none;stroke-width:0.140625;stroke-miterlimit:100"
     id="rect6"
     width="22.369734"
     height="1.96875"
     x="0.76229078"
     y="3.9447861" />
  <rect
     style="fill:#ffffff;fill-opacity:1;stroke:none;stroke-width:0.140625;stroke-miterlimit:100"
     id="rect6-0"
     width="22.369734"
     height="1.96875"
     x="0.6362586"
     y="18.092663" />
</svg>
