<?xml version="1.0" encoding="UTF-8" standalone="no"?>
<svg
   id="Layer_1"
   height="512"
   viewBox="0 0 24 24"
   width="512"
   data-name="Layer 1"
   version="1.1"
   sodipodi:docname="film.svg"
   inkscape:version="1.3 (0e150ed6c4, 2023-07-21)"
   xmlns:inkscape="http://www.inkscape.org/namespaces/inkscape"
   xmlns:sodipodi="http://sodipodi.sourceforge.net/DTD/sodipodi-0.dtd"
   xmlns="http://www.w3.org/2000/svg"
   xmlns:svg="http://www.w3.org/2000/svg">
  <defs
     id="defs1">
    <inkscape:path-effect
       effect="fillet_chamfer"
       id="path-effect1"
       is_visible="true"
       lpeversion="1"
       nodesatellites_param="F,0,0,1,0,0,0,1 @ F,0,0,1,0,0,0,1 @ F,0,0,1,0,0,0,1 @ F,0,0,1,0,0,0,1 @ F,0,0,1,0,0,0,1 @ F,0,0,1,0,0,0,1 @ F,0,0,1,0,0,0,1 @ F,0,0,1,0,0,0,1 @ F,0,0,1,0,0,0,1 @ F,0,0,1,0,0,0,1 @ F,0,0,1,0,0,0,1 @ F,0,0,1,0,0,0,1 @ F,0,0,1,0,0,0,1 @ F,0,0,1,0,0,0,1 @ F,0,0,1,0,0,0,1 @ F,0,0,1,0,0,0,1 @ F,0,0,1,0,0,0,1 @ F,0,0,1,0,0,0,1 @ F,0,0,1,0,0,0,1 @ F,0,0,1,0,0,0,1 | F,0,0,1,0,0,0,1 @ F,0,0,1,0,0,0,1 @ F,0,0,1,0,0,0,1 @ F,0,0,1,0,0,0,1 | F,0,0,1,0,0,0,1 @ F,0,0,1,0,0,0,1 @ F,0,0,1,0,0,0,1 @ F,0,0,1,0,0,0,1 | F,0,0,1,0,0,0,1 @ F,0,0,1,0,0,0,1 @ F,0,0,1,0,0,0,1 @ F,0,0,1,0,0,0,1 | F,0,1,1,0,2.014587,0,1 @ F,0,1,1,0,2.014587,0,1 @ F,0,1,1,0,2.014587,0,1 @ F,0,1,1,0,2.014587,0,1 | F,0,0,1,0,0,0,1 @ F,0,0,1,0,0,0,1 @ F,0,0,1,0,0,0,1 @ F,0,0,1,0,0,0,1 | F,0,0,1,0,0,0,1 @ F,0,0,1,0,0,0,1 @ F,0,0,1,0,0,0,1 @ F,0,0,1,0,0,0,1 | F,0,0,1,0,0,0,1 @ F,0,0,1,0,0,0,1 @ F,0,0,1,0,0,0,1 @ F,0,0,1,0,0,0,1 | F,0,0,1,0,0,0,1 @ F,0,0,1,0,0,0,1 @ F,0,0,1,0,0,0,1 @ F,0,0,1,0,0,0,1 | F,0,1,1,0,2.014587,0,1 @ F,0,1,1,0,2.014587,0,1 @ F,0,1,1,0,2.014587,0,1 @ F,0,0,1,0,2.014587,0,1 | F,0,0,1,0,0,0,1 @ F,0,0,1,0,0,0,1 @ F,0,0,1,0,0,0,1 @ F,0,0,1,0,0,0,1"
       radius="0"
       unit="px"
       method="auto"
       mode="F"
       chamfer_steps="1"
       flexible="false"
       use_knot_distance="true"
       apply_no_radius="true"
       apply_with_radius="true"
       only_selected="false"
       hide_knots="false" />
  </defs>
  <sodipodi:namedview
     id="namedview1"
     pagecolor="#505050"
     bordercolor="#eeeeee"
     borderopacity="1"
     inkscape:showpageshadow="0"
     inkscape:pageopacity="0"
     inkscape:pagecheckerboard="0"
     inkscape:deskcolor="#505050"
     inkscape:zoom="0.61035156"
     inkscape:cx="395.6736"
     inkscape:cy="156.4672"
     inkscape:window-width="3440"
     inkscape:window-height="1417"
     inkscape:window-x="1432"
     inkscape:window-y="1065"
     inkscape:window-maximized="1"
     inkscape:current-layer="Layer_1" />
  <path
     d="M 22,0 V 3 H 20 V 0 H 4 V 3 H 2 V 0 H 0 v 24 h 2 v -3 h 2 v 3 h 16 v -3 h 2 v 3 h 2 V 0 Z m 0,5 V 7 H 20 V 5 Z m -2,8 h 2 v 2 h -2 z m 0,-2 V 9 h 2 v 2 z M 18,4.014587 V 8.985413 A 2.014587,2.014587 135 0 1 15.985413,11 H 8.014587 A 2.014587,2.014587 45 0 1 6,8.985413 V 4.014587 A 2.014587,2.014587 135 0 1 8.014587,2 h 7.970826 A 2.014587,2.014587 45 0 1 18,4.014587 Z M 2,11 V 9 h 2 v 2 z m 2,2 v 2 H 2 V 13 Z M 4,5 V 7 H 2 V 5 Z M 2,19 v -2 h 2 v 2 z m 4,0.985413 V 15.014587 A 2.014587,2.014587 135 0 1 8.014587,13 h 7.970826 A 2.014587,2.014587 45 0 1 18,15.014587 v 4.970826 A 2.014587,2.014587 135 0 1 15.985413,22 H 8.014587 A 2.014587,2.014587 45 0 1 6,19.985413 Z M 20,19 v -2 h 2 v 2 z"
     id="path1"
     style="fill:#ffffff;fill-opacity:1"
     inkscape:path-effect="#path-effect1"
     inkscape:original-d="m22 0v3h-2v-3h-16v3h-2v-3h-2v24h2v-3h2v3h16v-3h2v3h2v-24zm0 5v2h-2v-2zm-2 8h2v2h-2zm0-2v-2h2v2zm-2-9v9h-12v-9zm-16 9v-2h2v2zm2 2v2h-2v-2zm0-8v2h-2v-2zm-2 14v-2h2v2zm4 3v-9h12v9zm14-3v-2h2v2z" />
</svg>
