<?xml version="1.0" encoding="UTF-8" standalone="no"?>
<svg
   id="Layer_1"
   data-name="Layer 1"
   viewBox="0 0 24 24"
   width="512"
   height="512"
   version="1.1"
   sodipodi:docname="folder-open-2.svg"
   inkscape:version="1.3 (0e150ed6c4, 2023-07-21)"
   xmlns:inkscape="http://www.inkscape.org/namespaces/inkscape"
   xmlns:sodipodi="http://sodipodi.sourceforge.net/DTD/sodipodi-0.dtd"
   xmlns="http://www.w3.org/2000/svg"
   xmlns:svg="http://www.w3.org/2000/svg">
  <defs
     id="defs1">
    <inkscape:path-effect
       effect="fillet_chamfer"
       id="path-effect2"
       is_visible="true"
       lpeversion="1"
       nodesatellites_param="F,0,0,1,0,0,0,1 @ F,0,0,1,0,0,0,1 @ F,0,0,1,0,0,0,1 @ F,0,0,1,0,0,0,1 @ F,0,0,1,0,0,0,1 @ F,0,0,1,0,0,0,1 @ F,0,0,1,0,0,0,1 @ F,0,0,1,0,0,0,1 @ F,0,0,1,0,0,0,1 @ F,0,0,1,0,0,0,1 @ F,0,0,1,0,0,0,1 @ F,0,0,1,0,0,0,1 @ F,0,0,1,0,0,0,1 @ F,0,0,1,0,0,0,1 @ F,0,0,1,0,0,0,1 @ F,0,0,1,0,0,0,1 @ F,0,0,1,0,0,0,1 @ F,0,0,1,0,0,0,1 @ F,0,0,1,0,0,0,1 @ F,0,0,1,0,2.2430832,0,1 @ F,0,0,1,0,1.8560351,0,1 @ F,0,0,1,0,0,0,1 @ F,0,0,1,0,0,0,1 @ F,0,0,1,0,0,0,1 @ F,0,0,1,0,0,0,1 @ F,0,0,1,0,0,0,1 @ F,0,0,1,0,0,0,1 @ F,0,0,1,0,0,0,1 @ F,0,0,1,0,0,0,1 @ F,0,0,1,0,0,0,1 @ F,0,0,1,0,0,0,1 @ F,0,0,1,0,0,0,1 @ F,0,0,1,0,0,0,1 @ F,0,0,1,0,0,0,1 @ F,0,0,1,0,0,0,1 @ F,0,0,1,0,0,0,1 @ F,0,0,1,0,0,0,1 @ F,0,0,1,0,0,0,1 @ F,0,0,1,0,0,0,1 @ F,0,0,1,0,0,0,1 @ F,0,0,1,0,0,0,1 @ F,0,0,1,0,0,0,1 @ F,0,0,1,0,0,0,1 @ F,0,0,1,0,0,0,1 @ F,0,0,1,0,0,0,1 @ F,0,0,1,0,0,0,1 @ F,0,0,1,0,0,0,1 @ F,0,0,1,0,0,0,1 @ F,0,0,1,0,0,0,1 @ F,0,0,1,0,0,0,1 @ F,0,0,1,0,0,0,1 @ F,0,0,1,0,0,0,1 @ F,0,0,1,0,0,0,1 @ F,0,0,1,0,0,0,1 @ F,0,0,1,0,0,0,1 @ F,0,0,1,0,0,0,1 @ F,0,0,1,0,0,0,1 @ F,0,0,1,0,0,0,1 @ F,0,0,1,0,0,0,1 @ F,0,0,1,0,0,0,1 @ F,0,0,1,0,0,0,1 @ F,0,0,1,0,0,0,1 @ F,0,0,1,0,0,0,1 @ F,0,0,1,0,0,0,1 | F,0,0,1,0,0,0,1 @ F,0,0,1,0,0,0,1 @ F,0,0,1,0,0,0,1 @ F,0,0,1,0,0,0,1 @ F,0,0,1,0,0,0,1"
       radius="0"
       unit="px"
       method="auto"
       mode="F"
       chamfer_steps="1"
       flexible="false"
       use_knot_distance="true"
       apply_no_radius="true"
       apply_with_radius="true"
       only_selected="false"
       hide_knots="false" />
  </defs>
  <sodipodi:namedview
     id="namedview1"
     pagecolor="#505050"
     bordercolor="#eeeeee"
     borderopacity="1"
     inkscape:showpageshadow="0"
     inkscape:pageopacity="0"
     inkscape:pagecheckerboard="0"
     inkscape:deskcolor="#505050"
     inkscape:zoom="1.6724733"
     inkscape:cx="328.55532"
     inkscape:cy="204.78653"
     inkscape:window-width="3440"
     inkscape:window-height="1417"
     inkscape:window-x="1432"
     inkscape:window-y="1065"
     inkscape:window-maximized="1"
     inkscape:current-layer="Layer_1" />
  <path
     d="m 3,1.0000305 c -0.1033749,0 -0.2055287,0.00521 -0.3062439,0.015472 -0.1007152,0.010262 -0.1999977,0.025576 -0.2975464,0.045593 -0.097549,0.020018 -0.1934171,0.0448 -0.2872925,0.074066 C 2.0150418,1.1644284 1.9231303,1.1981372 1.8334351,1.236145 1.7437398,1.2741528 1.6563278,1.3164283 1.5713196,1.3626709 1.4863114,1.4089135 1.4037585,1.4591214 1.3239441,1.513092 1.2441297,1.5670627 1.1669787,1.6247518 1.092865,1.6859436 1.0187513,1.7471354 0.94763641,1.8118546 0.87973022,1.8797607 0.81182404,1.9476669 0.74719647,2.0187818 0.68600464,2.0928955 0.62481281,2.1670092 0.56703217,2.2440687 0.51306152,2.3238831 0.45909087,2.4036974 0.40888301,2.4862503 0.36264038,2.5712585 0.31639775,2.6562668 0.27412228,2.7437704 0.2361145,2.8334656 0.19810673,2.9231608 0.16439792,3.0150724 0.13513184,3.1089478 0.10586575,3.2028231 0.08108323,3.2986915 0.06106567,3.3962402 0.04104812,3.493789 0.02582616,3.5929798 0.01556396,3.6936951 0.00530177,3.7944103 0,3.8966556 0,4.0000305 V 22.999969 H 20.47403 L 23.43054,12.164013 A 1.7130671,1.7130671 52.630633 0 0 21.777883,10.000031 H 7.6080187 A 2.5345321,2.5345321 143.78472 0 0 5.191718,11.769485 L 2.269043,21 H 2.0009766 V 4.0000305 c 0,-0.068875 0.007,-0.1362232 0.020325,-0.2012329 0.013328,-0.06501 0.033007,-0.127711 0.058319,-0.1875 0.025312,-0.059789 0.05624,-0.1166175 0.092194,-0.1698303 C 2.2077671,3.3882544 2.2487869,3.3386162 2.2940369,3.293335 2.3392868,3.2480538 2.388783,3.2071062 2.4419861,3.1711121 2.4951892,3.135118 2.5520955,3.1040869 2.611908,3.0787354 2.6717204,3.0533838 2.734513,3.0336782 2.7995911,3.0203247 2.8646691,3.0069712 2.9320071,3 3.0010071,3 h 2.763977 l 4.0000305,1.9999695 h 8.2359924 c 0.069,0 0.136338,0.00706 0.201416,0.020416 0.06508,0.013354 0.127871,0.033059 0.187683,0.058411 0.05981,0.025352 0.116719,0.056291 0.169922,0.092285 0.0532,0.035994 0.102699,0.077033 0.147949,0.1223145 0.04525,0.045281 0.08618,0.094828 0.122132,0.1480408 0.03595,0.053213 0.06697,0.1100413 0.09229,0.1698303 0.02531,0.059789 0.04499,0.1225818 0.05832,0.1875915 0.01333,0.06501 0.02032,0.1322665 0.02032,0.2011414 V 8.0448849 H 21 V 6 C 21,5.8966251 20.9947,5.7944713 20.98444,5.6937561 20.97418,5.5930409 20.95896,5.4937584 20.93894,5.3962097 20.91892,5.2986607 20.89414,5.2027926 20.86487,5.1089172 20.835602,5.0150418 20.801893,4.9231303 20.763885,4.8334351 20.725878,4.7437398 20.683602,4.6563278 20.63736,4.5713196 20.591117,4.4863114 20.540909,4.4037585 20.486938,4.3239441 20.432968,4.2441297 20.375187,4.1669787 20.313995,4.092865 20.252804,4.0187513 20.188176,3.9476364 20.12027,3.8797302 20.052364,3.811824 19.981249,3.7471965 19.907135,3.6860046 19.833021,3.6248128 19.75587,3.5670322 19.676056,3.5130615 19.596242,3.4590909 19.513689,3.408883 19.42868,3.3626404 19.343672,3.3163978 19.25626,3.2741223 19.166565,3.2361145 19.07687,3.1981067 18.984958,3.1643979 18.891083,3.1351318 18.797207,3.1058658 18.701339,3.0810832 18.60379,3.0610657 18.506242,3.0410481 18.406959,3.0258262 18.306244,3.015564 18.205529,3.0053018 18.103375,3 18,3 H 10.235962 L 6.2360229,1.0000305 Z M 7.2160034,12 H 21.403015 l -2.454986,9 H 4.3659668 4.3649597 Z"
     style="fill:#ffffff"
     id="path2"
     sodipodi:nodetypes="ssccsssssssssssssccccccscscsssssccsssssscssccsssssssssssssssssccscccccc"
     inkscape:path-effect="#path-effect2"
     inkscape:original-d="m 3,1.0000305 c -0.1033749,0 -0.2055287,0.00521 -0.3062439,0.015472 -0.1007152,0.010262 -0.1999977,0.025576 -0.2975464,0.045593 -0.097549,0.020018 -0.1934171,0.0448 -0.2872925,0.074066 C 2.0150418,1.1644284 1.9231303,1.1981372 1.8334351,1.236145 1.7437398,1.2741528 1.6563278,1.3164283 1.5713196,1.3626709 1.4863114,1.4089135 1.4037585,1.4591214 1.3239441,1.513092 1.2441297,1.5670627 1.1669787,1.6247518 1.092865,1.6859436 1.0187513,1.7471354 0.94763641,1.8118546 0.87973022,1.8797607 0.81182404,1.9476669 0.74719647,2.0187818 0.68600464,2.0928955 0.62481281,2.1670092 0.56703217,2.2440687 0.51306152,2.3238831 0.45909087,2.4036974 0.40888301,2.4862503 0.36264038,2.5712585 0.31639775,2.6562668 0.27412228,2.7437704 0.2361145,2.8334656 0.19810673,2.9231608 0.16439792,3.0150724 0.13513184,3.1089478 0.10586575,3.2028231 0.08108323,3.2986915 0.06106567,3.3962402 0.04104812,3.493789 0.02582616,3.5929798 0.01556396,3.6936951 0.00530177,3.7944103 0,3.8966556 0,4.0000305 V 22.999969 H 20.47403 L 24.020966,10.000031 H 5.7519836 L 2.269043,21 H 2.0009766 V 4.0000305 c 0,-0.068875 0.007,-0.1362232 0.020325,-0.2012329 0.013328,-0.06501 0.033007,-0.127711 0.058319,-0.1875 0.025312,-0.059789 0.05624,-0.1166175 0.092194,-0.1698303 C 2.2077671,3.3882544 2.2487869,3.3386162 2.2940369,3.293335 2.3392868,3.2480538 2.388783,3.2071062 2.4419861,3.1711121 2.4951892,3.135118 2.5520955,3.1040869 2.611908,3.0787354 2.6717204,3.0533838 2.734513,3.0336782 2.7995911,3.0203247 2.8646691,3.0069712 2.9320071,3 3.0010071,3 h 2.763977 l 4.0000305,1.9999695 h 8.2359924 c 0.069,0 0.136338,0.00706 0.201416,0.020416 0.06508,0.013354 0.127871,0.033059 0.187683,0.058411 0.05981,0.025352 0.116719,0.056291 0.169922,0.092285 0.0532,0.035994 0.102699,0.077033 0.147949,0.1223145 0.04525,0.045281 0.08618,0.094828 0.122132,0.1480408 0.03595,0.053213 0.06697,0.1100413 0.09229,0.1698303 0.02531,0.059789 0.04499,0.1225818 0.05832,0.1875915 0.01333,0.06501 0.02032,0.1322665 0.02032,0.2011414 V 8.0448849 H 21 V 6 C 21,5.8966251 20.9947,5.7944713 20.98444,5.6937561 20.97418,5.5930409 20.95896,5.4937584 20.93894,5.3962097 20.91892,5.2986607 20.89414,5.2027926 20.86487,5.1089172 20.835602,5.0150418 20.801893,4.9231303 20.763885,4.8334351 20.725878,4.7437398 20.683602,4.6563278 20.63736,4.5713196 20.591117,4.4863114 20.540909,4.4037585 20.486938,4.3239441 20.432968,4.2441297 20.375187,4.1669787 20.313995,4.092865 20.252804,4.0187513 20.188176,3.9476364 20.12027,3.8797302 20.052364,3.811824 19.981249,3.7471965 19.907135,3.6860046 19.833021,3.6248128 19.75587,3.5670322 19.676056,3.5130615 19.596242,3.4590909 19.513689,3.408883 19.42868,3.3626404 19.343672,3.3163978 19.25626,3.2741223 19.166565,3.2361145 19.07687,3.1981067 18.984958,3.1643979 18.891083,3.1351318 18.797207,3.1058658 18.701339,3.0810832 18.60379,3.0610657 18.506242,3.0410481 18.406959,3.0258262 18.306244,3.015564 18.205529,3.0053018 18.103375,3 18,3 H 10.235962 L 6.2360229,1.0000305 Z M 7.2160034,12 H 21.403015 l -2.454986,9 H 4.3659668 4.3649597 Z" />
</svg>
