<?xml version="1.0" encoding="UTF-8" standalone="no"?>
<svg
   id="Layer_1"
   data-name="Layer 1"
   viewBox="0 0 24 24"
   version="1.1"
   sodipodi:docname="seek-backward.svg"
   inkscape:version="1.3 (0e150ed6c4, 2023-07-21)"
   xmlns:inkscape="http://www.inkscape.org/namespaces/inkscape"
   xmlns:sodipodi="http://sodipodi.sourceforge.net/DTD/sodipodi-0.dtd"
   xmlns="http://www.w3.org/2000/svg"
   xmlns:svg="http://www.w3.org/2000/svg">
  <defs
     id="defs1" />
  <sodipodi:namedview
     id="namedview1"
     pagecolor="#505050"
     bordercolor="#eeeeee"
     borderopacity="1"
     inkscape:showpageshadow="0"
     inkscape:pageopacity="0"
     inkscape:pagecheckerboard="0"
     inkscape:deskcolor="#505050"
     inkscape:zoom="16"
     inkscape:cx="4.40625"
     inkscape:cy="10.96875"
     inkscape:window-width="3440"
     inkscape:window-height="1417"
     inkscape:window-x="1432"
     inkscape:window-y="1065"
     inkscape:window-maximized="1"
     inkscape:current-layer="Layer_1" />
  <path
     d="m 11.831055,0 c 0.222255,0 0.443846,0.00563214 0.663375,0.01679432 0.21953,0.01116431 0.436349,0.02832623 0.652879,0.05038295 0.216531,0.0220567 0.431223,0.04919524 0.644483,0.08187241 0.213259,0.0326761 0.426368,0.0703373 0.636084,0.11336158 0.209716,0.0430243 0.417588,0.0917509 0.623489,0.14485084 0.205901,0.0531 0.40908,0.11133766 0.610893,0.17424105 0.201813,0.0629035 0.400844,0.12909707 0.598298,0.20153178 0.197453,0.0724347 0.39288,0.15132738 0.585701,0.23302117 0.192822,0.081694 0.38309,0.167532 0.571007,0.2582127 0.187918,0.090681 0.373571,0.1861079 0.556312,0.2855033 0.182741,0.099395 0.364324,0.2028569 0.541617,0.3106948 0.177292,0.1078379 0.35115,0.219878 0.522723,0.3358863 0.171572,0.1160082 0.340349,0.2350722 0.505928,0.3589786 0.16558,0.1239062 0.327721,0.2526377 0.487036,0.3841699 0.159314,0.1315323 0.315364,0.2662768 0.468141,0.4051629 0.152777,0.1388861 0.301181,0.2822873 0.447149,0.4282551 0.145967,0.1459676 0.289369,0.2943714 0.428255,0.4471486 0.138886,0.1527773 0.27363,0.3088274 0.405163,0.4681417 0.131532,0.1593144 0.260263,0.3214556 0.38417,0.4870352 0.123906,0.1655785 0.24297,0.3343568 0.358978,0.5059287 0.116008,0.1715718 0.228048,0.3454297 0.335886,0.5227229 0.107838,0.1772931 0.2113,0.3588749 0.310695,0.5416164 0.0994,0.1827415 0.194823,0.3683947 0.285504,0.5563115 0.09068,0.1879179 0.176518,0.3781855 0.258212,0.5710067 0.08169,0.1928225 0.160587,0.3882492 0.233021,0.5857019 0.01676,0.045681 0.02993,0.09264 0.04619,0.138554 H 21.683021 C 21.629476,8.4846226 21.575108,8.361858 21.517177,8.2418106 21.441608,8.0852134 21.362788,7.9322513 21.279957,7.7799664 21.197126,7.6276826 21.111611,7.4763639 21.021744,7.328619 20.931877,7.1808753 20.837115,7.0349448 20.74044,6.8919669 20.643765,6.74899 20.545598,6.6100932 20.442341,6.472109 20.339083,6.3341258 20.230761,6.1976098 20.121149,6.0648471 20.011537,5.9320844 19.898904,5.8016949 19.783164,5.6743795 19.667424,5.5470641 19.550025,5.4223465 19.428384,5.3007062 19.306743,5.1790649 19.182026,5.0616659 19.05471,4.9459264 18.927395,4.8301859 18.797005,4.7175518 18.664242,4.6079399 18.53148,4.4983282 18.394964,4.3900061 18.25698,4.2867491 18.118996,4.183492 17.980099,4.0853253 17.837122,3.9886499 17.694145,3.8919747 17.548214,3.797212 17.40047,3.7073452 17.252726,3.6174784 17.101407,3.5319639 16.949123,3.4491326 16.796838,3.3663012 16.643876,3.2874818 16.487279,3.2119129 16.330682,3.1363439 16.171424,3.063766 16.01074,2.9956861 15.850057,2.9276059 15.688248,2.8629153 15.523705,2.8025515 15.359162,2.7421876 15.19225,2.6870293 15.024074,2.6346083 14.855898,2.5821874 14.685528,2.5319099 14.513947,2.4876579 14.342366,2.4434065 14.170182,2.4038532 13.995423,2.3679984 c -0.174761,-0.035854 -0.351309,-0.067236 -0.529022,-0.094469 -0.177712,-0.027232 -0.35698,-0.050896 -0.537418,-0.069276 -0.180438,-0.018381 -0.362879,-0.030583 -0.545815,-0.039887 -0.182936,-0.00931 -0.366906,-0.014695 -0.552113,-0.014695 -0.211877,0 -0.423964,0.00635 -0.633985,0.018893 -0.210022,0.01254 -0.41789,0.031877 -0.625589,0.05668 -0.207699,0.024803 -0.414381,0.055581 -0.6192904,0.092368 -0.204908,0.036788 -0.407145,0.079563 -0.608794,0.1280566 -0.201649,0.048493 -0.402474,0.1017236 -0.600396,0.1616453 -0.197922,0.059922 -0.394075,0.1262618 -0.587802,0.1973332 -0.193726,0.071072 -0.386143,0.1468795 -0.575205,0.2288226 -0.189062,0.081944 -0.37448,0.1698746 -0.55841,0.2624112 -0.183932,0.092537 -0.365386,0.1910485 -0.543717,0.2939005 -0.178332,0.1028521 -0.354659,0.2104014 -0.526921,0.3232905 -0.172264,0.1128893 -0.340203,0.2300325 -0.505929,0.3526807 -0.165729,0.1226485 -0.328313,0.2499413 -0.487036,0.3820709 -0.158723,0.1321286 -0.314791,0.270129 -0.466042,0.4114602 -0.151251,0.1413324 -0.297541,0.2863955 -0.440851,0.4366522 -0.14331,0.1502568 -0.282856,0.3050407 -0.417758,0.4639434 -0.134902,0.1589027 -0.264443,0.3218629 -0.390468,0.4891343 h 4.288848 v 2.1496724 h -5.374181 c -0.0741,0 -0.14824,-0.00311 -0.220425,-0.010534 -0.07219,-0.0073 -0.142117,-0.01925 -0.212029,-0.033589 -0.0699,-0.014338 -0.138455,-0.031514 -0.20573,-0.052485 -0.06727,-0.020971 -0.133057,-0.046251 -0.197333,-0.073476 -0.06427,-0.027226 -0.128022,-0.057139 -0.188936,-0.090265 -0.06091,-0.033126 -0.119151,-0.068403 -0.17633996,-0.1070644 -0.0572,-0.038662 -0.112741,-0.080021 -0.165843,-0.1238577 -0.0531,-0.043842 -0.104593,-0.0899 -0.153249,-0.1385529 -0.04866,-0.048658 -0.09471,-0.1001424 -0.138554,-0.153249 -0.04384,-0.053097 -0.08519,-0.1086542 -0.123857,-0.165843 -0.03866,-0.057192 -0.07394,-0.1154266 -0.107065,-0.1763408 -0.03312,-0.060911 -0.06304,-0.1246606 -0.09027,-0.1889358 -0.02723,-0.064275 -0.0525,-0.1300584 -0.07348,-0.1973335 -0.02096,-0.067274 -0.03814,-0.1358184 -0.05248,-0.2057301 -0.01434,-0.069907 -0.02624,-0.1398437 -0.03359,-0.2120286 -0.0073,-0.072143 -0.01054,-0.1462928 -0.01054,-0.2203887 V 1.0748362 H 2.1574936 v 3.3357714 c 0.151587,-0.1721084 0.308338,-0.340424 0.468177,-0.5038299 0.159839,-0.1634059 0.32353,-0.322109 0.491234,-0.4765387 0.167703,-0.1544299 0.339179,-0.3040681 0.514326,-0.449248 0.175146,-0.1451798 0.35315,-0.2842019 0.535318,-0.4198579 0.182168,-0.135656 0.367545,-0.2667091 0.556312,-0.3925672 0.188767,-0.1258579 0.380261,-0.2473907 0.575205,-0.363177 0.194945,-0.1157862 0.3934,-0.2262473 0.594099,-0.3316877 0.2007,-0.1054404 0.404861,-0.2053779 0.610894,-0.3001984 0.206032,-0.094821 0.414643,-0.18478216 0.625587,-0.26870902 0.210945,-0.0839269 0.422752,-0.16236121 0.638185,-0.23512041 0.215432,-0.0727592 0.433378,-0.14021422 0.652879,-0.20153179 0.2195,-0.0613176 0.442328,-0.11624193 0.665474,-0.1658439 0.223146,-0.049602 0.447502,-0.0925435 0.673873,-0.13015599 C 9.9854256,0.13452929 10.212154,0.10092336 10.441326,0.07557442 10.670497,0.05022549 10.902541,0.03170498 11.13409,0.01889358 11.365641,0.00608217 11.597547,0 11.831055,0 Z"
     style="fill:#ffffff;stroke-width:1.07484"
     id="path2" />
  <path
     style="font-size:17.3333px;font-family:Arial;-inkscape-font-specification:Arial;letter-spacing:0px;fill:#ffffff;stroke:#ffffff;stroke-width:0.8;stroke-linecap:round;stroke-miterlimit:100;stroke-dasharray:none"
     d="M 8.2887441,23.388412 H 6.7653096 V 13.680749 Q 6.2151804,14.205488 5.3180467,14.730226 4.4293766,15.254965 3.7184405,15.517334 V 14.044681 Q 4.9964328,13.44377 5.9528111,12.588954 6.9091895,11.734138 7.3069752,10.930103 H 8.2887441 Z M 12.19043,17.269284 q 0,-2.200517 0.448566,-3.537754 0.457031,-1.3457 1.345701,-2.073563 0.897134,-0.727864 2.251298,-0.727864 0.998696,0 1.751949,0.40625 0.753254,0.397785 1.244138,1.159503 0.490885,0.753253 0.770181,1.845048 0.279297,1.083331 0.279297,2.92838 0,2.183589 -0.448567,3.52929 -0.448567,1.337237 -1.345701,2.073563 -0.88867,0.727864 -2.251297,0.727864 -1.794268,0 -2.818354,-1.286456 Q 12.19043,20.76472 12.19043,17.269284 Z m 1.565752,0 q 0,3.055332 0.710936,4.070955 0.719399,1.00716 1.768877,1.00716 1.049477,0 1.760413,-1.015623 0.719399,-1.015623 0.719399,-4.062492 0,-3.063796 -0.719399,-4.070956 -0.710936,-1.007159 -1.77734,-1.007159 -1.049478,0 -1.675778,0.88867 -0.787108,1.134112 -0.787108,4.189445 z"
     id="text1"
     aria-label="10" />
</svg>
