<?xml version="1.0" encoding="UTF-8" standalone="no"?>
<svg
   id="Layer_1"
   data-name="Layer 1"
   viewBox="0 0 24 24"
   version="1.1"
   sodipodi:docname="seek-forward.svg"
   inkscape:version="1.3 (0e150ed6c4, 2023-07-21)"
   xmlns:inkscape="http://www.inkscape.org/namespaces/inkscape"
   xmlns:sodipodi="http://sodipodi.sourceforge.net/DTD/sodipodi-0.dtd"
   xmlns="http://www.w3.org/2000/svg"
   xmlns:svg="http://www.w3.org/2000/svg">
  <defs
     id="defs1" />
  <sodipodi:namedview
     id="namedview1"
     pagecolor="#505050"
     bordercolor="#eeeeee"
     borderopacity="1"
     inkscape:showpageshadow="0"
     inkscape:pageopacity="0"
     inkscape:pagecheckerboard="0"
     inkscape:deskcolor="#505050"
     inkscape:zoom="22.627417"
     inkscape:cx="8.3747959"
     inkscape:cy="6.9163882"
     inkscape:window-width="3440"
     inkscape:window-height="1417"
     inkscape:window-x="1432"
     inkscape:window-y="1065"
     inkscape:window-maximized="1"
     inkscape:current-layer="Layer_1" />
  <path
     d="M 12.168992,0 C 11.946737,0 11.725146,0.00563214 11.505617,0.01679432 11.286087,0.02795863 11.069268,0.04512055 10.852738,0.06717727 10.636207,0.08923397 10.421515,0.11637251 10.208255,0.14904968 9.9949961,0.18172578 9.7818869,0.21938698 9.5721702,0.26241126 9.3624544,0.30543556 9.1545825,0.35416216 8.9486818,0.4072621 8.7427808,0.4603621 8.5396018,0.51859976 8.3377885,0.58150315 8.1359752,0.64440665 7.9369446,0.71060022 7.739491,0.78303493 7.5420373,0.85546965 7.3466109,0.93436231 7.1537893,1.0160561 6.9609676,1.0977499 6.7707,1.1835881 6.5827825,1.2742688 6.394865,1.3649494 6.209212,1.4603767 6.0264707,1.5597721 5.8437295,1.6591675 5.662147,1.762629 5.4848541,1.8704669 5.3075613,1.9783048 5.1337032,2.0903449 4.9621311,2.2063532 4.790559,2.3223614 4.6217816,2.4414254 4.4562023,2.5653318 4.290623,2.689238 4.1284813,2.8179695 3.9691671,2.9495017 3.8098529,3.081034 3.6538026,3.2157785 3.5010256,3.3546646 3.3482484,3.4935507 3.1998446,3.6369519 3.0538769,3.7829197 2.9079092,3.9288873 2.764508,4.0772911 2.6256219,4.2300683 2.4867358,4.3828456 2.3519913,4.5388957 2.220459,4.69821 2.0889268,4.8575244 1.9601954,5.0196656 1.8362891,5.1852452 1.7123827,5.3508237 1.5933187,5.519602 1.4773105,5.6911739 1.3613023,5.8627457 1.2492622,6.0366036 1.1414242,6.2138968 1.0335863,6.3911899 0.93012479,6.5727717 0.83072942,6.7555132 0.73133394,6.9382547 0.63590665,7.1239079 0.54522606,7.3118247 0.45454535,7.4997426 0.36870721,7.6900102 0.28701343,7.8828314 0.20531943,8.0756539 0.12642699,8.2710806 0.05399227,8.4685333 0.03723558,8.5142139 0.02406023,8.5611735 0.00780764,8.6070873 H 2.317026 C 2.3705711,8.4846226 2.4249386,8.361858 2.4828699,8.2418106 2.5584384,8.0852134 2.6372582,7.9322513 2.7200896,7.7799664 2.8029207,7.6276826 2.8884354,7.4763639 2.9783022,7.328619 3.0681693,7.1808753 3.1629317,7.0349448 3.259607,6.8919669 3.356282,6.74899 3.454449,6.6100932 3.557706,6.472109 3.6609634,6.3341258 3.7692855,6.1976098 3.8788973,6.0648471 3.9885093,5.9320844 4.101143,5.8016949 4.216883,5.6743795 4.3326229,5.5470641 4.4500218,5.4223465 4.5716629,5.3007062 4.6933039,5.1790649 4.818021,5.0616659 4.9453364,4.9459264 5.0726518,4.8301859 5.2030414,4.7175518 5.3358042,4.6079399 5.4685671,4.4983282 5.6050829,4.3900061 5.7430664,4.2867491 5.8810503,4.183492 6.0199473,4.0853253 6.1629246,3.9886499 6.3059018,3.8919747 6.4518327,3.797212 6.5995768,3.7073452 6.7473209,3.6174784 6.8986399,3.5319639 7.0509239,3.4491326 7.2032082,3.3663012 7.3561703,3.2874818 7.5127678,3.2119129 7.6693651,3.1363439 7.8286228,3.063766 7.9893064,2.9956861 8.1499901,2.9276059 8.3117984,2.8629153 8.4763415,2.8025515 8.6408846,2.7421876 8.8077967,2.6870293 8.9759725,2.6346083 9.1441482,2.5821874 9.3145183,2.5319099 9.4860995,2.4876579 9.657681,2.4434065 9.8298643,2.4038532 10.004624,2.3679984 c 0.174761,-0.035854 0.351309,-0.067236 0.529022,-0.094469 0.177712,-0.027232 0.35698,-0.050896 0.537418,-0.069276 0.180438,-0.018381 0.362879,-0.030583 0.545815,-0.039887 0.182936,-0.00931 0.366906,-0.014695 0.552113,-0.014695 0.211877,0 0.423964,0.00635 0.633985,0.018893 0.210022,0.01254 0.41789,0.031877 0.625589,0.05668 0.207699,0.024803 0.414381,0.055581 0.61929,0.092368 0.204908,0.036788 0.407145,0.079563 0.608794,0.1280566 0.201649,0.048493 0.402474,0.1017236 0.600396,0.1616453 0.197922,0.059922 0.394075,0.1262618 0.587802,0.1973332 0.193726,0.071072 0.386143,0.1468795 0.575205,0.2288226 0.189062,0.081944 0.37448,0.1698746 0.55841,0.2624112 0.183932,0.092537 0.365386,0.1910485 0.543717,0.2939005 0.178332,0.1028521 0.354659,0.2104014 0.526921,0.3232905 0.172264,0.1128893 0.340203,0.2300325 0.505929,0.3526807 0.165729,0.1226485 0.328313,0.2499413 0.487036,0.3820709 0.158723,0.1321286 0.314791,0.270129 0.466042,0.4114602 0.151251,0.1413324 0.297541,0.2863955 0.440851,0.4366522 0.14331,0.1502568 0.282856,0.3050407 0.417758,0.4639434 0.134902,0.1589027 0.264443,0.3218629 0.390468,0.4891343 h -4.288848 v 2.1496724 h 5.374181 c 0.0741,0 0.14824,-0.00311 0.220425,-0.010534 0.07219,-0.0073 0.142117,-0.01925 0.212029,-0.033589 0.0699,-0.014338 0.138455,-0.031514 0.20573,-0.052485 0.06727,-0.020971 0.133057,-0.046251 0.197333,-0.073476 0.06427,-0.027226 0.128022,-0.057139 0.188936,-0.090265 0.06091,-0.033126 0.119151,-0.068403 0.17634,-0.1070644 0.0572,-0.038662 0.112741,-0.080021 0.165843,-0.1238577 0.0531,-0.043842 0.104593,-0.0899 0.153249,-0.1385529 0.04866,-0.048658 0.09471,-0.1001424 0.138554,-0.153249 0.04384,-0.053097 0.08519,-0.1086542 0.123857,-0.165843 0.03866,-0.057192 0.07394,-0.1154266 0.107065,-0.1763408 0.03312,-0.060911 0.06304,-0.1246606 0.09027,-0.1889358 0.02723,-0.064275 0.0525,-0.1300584 0.07348,-0.1973335 0.02096,-0.067274 0.03814,-0.1358184 0.05248,-0.2057301 0.01434,-0.069907 0.02624,-0.1398437 0.03359,-0.2120286 0.0073,-0.072143 0.01054,-0.1462928 0.01054,-0.2203887 V 1.0748362 H 21.842553 V 4.4106076 C 21.690966,4.2384992 21.534215,4.0701836 21.374376,3.9067777 21.214537,3.7433718 21.050846,3.5846687 20.883142,3.430239 20.715439,3.2758091 20.543963,3.1261709 20.368816,2.980991 20.19367,2.8358112 20.015666,2.6967891 19.833498,2.5611331 19.65133,2.4254771 19.465953,2.294424 19.277186,2.1685659 19.088419,2.042708 18.896925,1.9211752 18.701981,1.8053889 18.507036,1.6896027 18.308581,1.5791416 18.107882,1.4737012 17.907182,1.3682608 17.703021,1.2683233 17.496988,1.1735028 17.290956,1.0786821 17.082345,0.98872064 16.871401,0.90479378 16.660456,0.82086692 16.448649,0.74243257 16.233216,0.66967337 16.017784,0.59691416 15.799838,0.52945915 15.580337,0.46814158 15.360837,0.40682399 15.138009,0.35189965 14.914863,0.30229768 14.691717,0.25269571 14.467361,0.20975418 14.24099,0.17214169 14.014621,0.13452929 13.787893,0.10092336 13.558721,0.07557442 13.32955,0.05022549 13.097506,0.03170498 12.865957,0.01889358 12.634406,0.00608217 12.4025,0 12.168992,0 Z"
     style="fill:#ffffff;stroke-width:1.07484"
     id="path2" />
  <path
     style="font-size:17.3333px;font-family:Arial;-inkscape-font-specification:Arial;letter-spacing:0px;fill:#ffffff;stroke:#ffffff;stroke-width:0.8;stroke-linecap:round;stroke-miterlimit:100;stroke-dasharray:none"
     d="M 8.2887441,23.388412 H 6.7653096 V 13.680749 Q 6.2151804,14.205488 5.3180467,14.730226 4.4293766,15.254965 3.7184405,15.517334 V 14.044681 Q 4.9964328,13.44377 5.9528111,12.588954 6.9091895,11.734138 7.3069752,10.930103 H 8.2887441 Z M 12.19043,17.269284 q 0,-2.200517 0.448566,-3.537754 0.457031,-1.3457 1.345701,-2.073563 0.897134,-0.727864 2.251298,-0.727864 0.998696,0 1.751949,0.40625 0.753254,0.397785 1.244138,1.159503 0.490885,0.753253 0.770181,1.845048 0.279297,1.083331 0.279297,2.92838 0,2.183589 -0.448567,3.52929 -0.448567,1.337237 -1.345701,2.073563 -0.88867,0.727864 -2.251297,0.727864 -1.794268,0 -2.818354,-1.286456 Q 12.19043,20.76472 12.19043,17.269284 Z m 1.565752,0 q 0,3.055332 0.710936,4.070955 0.719399,1.00716 1.768877,1.00716 1.049477,0 1.760413,-1.015623 0.719399,-1.015623 0.719399,-4.062492 0,-3.063796 -0.719399,-4.070956 -0.710936,-1.007159 -1.77734,-1.007159 -1.049478,0 -1.675778,0.88867 -0.787108,1.134112 -0.787108,4.189445 z"
     id="text1"
     aria-label="10" />
</svg>
