<?xml version="1.0" encoding="UTF-8" standalone="no"?>
<svg
   id="Layer_1"
   data-name="Layer 1"
   viewBox="0 0 24 24"
   width="512"
   height="512"
   version="1.1"
   sodipodi:docname="seek-forward.svg"
   inkscape:version="1.3 (0e150ed6c4, 2023-07-21)"
   xmlns:inkscape="http://www.inkscape.org/namespaces/inkscape"
   xmlns:sodipodi="http://sodipodi.sourceforge.net/DTD/sodipodi-0.dtd"
   xmlns="http://www.w3.org/2000/svg"
   xmlns:svg="http://www.w3.org/2000/svg">
  <defs
     id="defs1">
    <inkscape:path-effect
       effect="fillet_chamfer"
       id="path-effect2"
       is_visible="true"
       lpeversion="1"
       nodesatellites_param="F,0,0,1,0,0,0,1 @ F,0,0,1,0,0,0,1 @ F,0,0,1,0,0,0,1 @ F,0,0,1,0,0,0,1 @ F,0,0,1,0,0.81772871,0,1 @ F,0,0,1,0,0,0,1 @ F,0,0,1,0,0,0,1 @ F,0,0,1,0,0,0,1 @ F,0,0,1,0,0,0,1 @ F,0,0,1,0,0,0,1 @ F,0,0,1,0,0,0,1"
       radius="0"
       unit="px"
       method="auto"
       mode="F"
       chamfer_steps="1"
       flexible="false"
       use_knot_distance="true"
       apply_no_radius="true"
       apply_with_radius="true"
       only_selected="false"
       hide_knots="false" />
    <inkscape:path-effect
       effect="fillet_chamfer"
       id="path-effect1"
       is_visible="true"
       lpeversion="1"
       nodesatellites_param="F,0,0,1,0,0,0,1 @ F,0,0,1,0,0,0,1 @ F,0,0,1,0,0,0,1 @ F,0,0,1,0,0,0,1 @ F,0,0,1,0,0,0,1 @ F,0,0,1,0,0,0,1 @ F,0,0,1,0,1.1329555,0,1"
       radius="0"
       unit="px"
       method="auto"
       mode="F"
       chamfer_steps="1"
       flexible="false"
       use_knot_distance="true"
       apply_no_radius="true"
       apply_with_radius="true"
       only_selected="false"
       hide_knots="false" />
  </defs>
  <sodipodi:namedview
     id="namedview1"
     pagecolor="#505050"
     bordercolor="#eeeeee"
     borderopacity="1"
     inkscape:showpageshadow="0"
     inkscape:pageopacity="0"
     inkscape:pagecheckerboard="0"
     inkscape:deskcolor="#505050"
     inkscape:zoom="0.5913086"
     inkscape:cx="-122.60941"
     inkscape:cy="487.9009"
     inkscape:window-width="3440"
     inkscape:window-height="1417"
     inkscape:window-x="1432"
     inkscape:window-y="1065"
     inkscape:window-maximized="1"
     inkscape:current-layer="Layer_1" />
  <path
     d="m 8,6 h 8.49153 l -2.5,2.5 1.414,1.414 4.325491,-4.335135 a 0.81955194,0.81955194 90 0 0 0,-1.15773 L 15.40553,0.086 l -1.414,1.414 2.5,2.5 H 8 C 3.589,4 0,7.589 0,12 H 2 C 2,8.691 4.691,6 8,6 Z"
     id="path1"
     style="fill:#ffffff;fill-opacity:1"
     sodipodi:nodetypes="scccccccsccs"
     inkscape:path-effect="#path-effect2"
     inkscape:original-d="m 8,6 8.49153,0 -2.5,2.5 1.414,1.414 L 20.308598,5 15.40553,0.086 13.99153,1.5 16.49153,4 8,4 C 3.589,4 0,7.589 0,12 H 2 C 2,8.691 4.691,6 8,6 Z" />
  <path
     d="M 8.6545105,23.38739 H 7.2812195 V 14.636475 Q 6.7853088,15.109497 5.976593,15.58252 5.1755066,16.055542 4.5346375,16.292053 V 14.964539 Q 5.686676,14.422852 6.5487976,13.652283 7.4109192,12.881714 7.7695007,12.156921 h 0.8850098 z m 3.5171505,-5.516052 q 0,-1.983643 0.404358,-3.189087 0.411988,-1.213074 1.213074,-1.869202 0.808716,-0.656128 2.029419,-0.656128 0.900269,0 1.579285,0.366211 0.679016,0.358582 1.121521,1.045227 0.442505,0.679016 0.694275,1.663208 0.25177,0.976563 0.25177,2.639771 0,1.968384 -0.404358,3.181457 -0.404358,1.205445 -1.213074,1.869202 -0.801087,0.656128 -2.029419,0.656128 -1.617432,0 -2.540588,-1.159668 -1.106263,-1.396179 -1.106263,-4.547119 z m 1.411438,0 q 0,2.754211 0.64087,3.669739 0.648498,0.907898 1.594543,0.907898 0.946045,0 1.586914,-0.915528 0.648499,-0.915527 0.648499,-3.662109 0,-2.761841 -0.648499,-3.669739 -0.640869,-0.907898 -1.602173,-0.907898 -0.946045,0 -1.51062,0.801087 -0.709534,1.022338 -0.709534,3.77655 z"
     id="text1"
     style="font-size:15.625px;font-family:Arial;-inkscape-font-specification:Arial;letter-spacing:0px;fill:#ffffff;stroke:#ffffff;stroke-width:0.84375;stroke-miterlimit:100"
     aria-label="10" />
  <path
     d="m 18.497181,8.5010358 1.414,1.414 3.5,-3.5 c 0.78,-0.779 0.78,-2.049 0,-2.828 l -3.5,-3.49999996 -1.414,1.41399996 2.690838,2.6978393 a 1.1359033,1.1359033 90 0 1 0,1.6043214 z"
     style="fill:#ffffff;fill-opacity:1"
     id="path1-1"
     sodipodi:nodetypes="cccccccc"
     inkscape:path-effect="#path-effect1"
     inkscape:original-d="m 18.497181,8.5010358 1.414,1.414 3.5,-3.5 c 0.78,-0.779 0.78,-2.049 0,-2.828 l -3.5,-3.49999996 -1.414,1.41399996 3.490917,3.5 z" />
</svg>
