<?xml version="1.0" encoding="UTF-8" standalone="no"?>
<svg
   id="Layer_1"
   data-name="Layer 1"
   viewBox="0 0 24 24"
   version="1.1"
   sodipodi:docname="subtitles-slash.svg"
   inkscape:version="1.3 (0e150ed6c4, 2023-07-21)"
   xmlns:inkscape="http://www.inkscape.org/namespaces/inkscape"
   xmlns:sodipodi="http://sodipodi.sourceforge.net/DTD/sodipodi-0.dtd"
   xmlns="http://www.w3.org/2000/svg"
   xmlns:svg="http://www.w3.org/2000/svg">
  <defs
     id="defs1" />
  <sodipodi:namedview
     id="namedview1"
     pagecolor="#505050"
     bordercolor="#eeeeee"
     borderopacity="1"
     inkscape:showpageshadow="0"
     inkscape:pageopacity="0"
     inkscape:pagecheckerboard="0"
     inkscape:deskcolor="#505050"
     inkscape:zoom="32"
     inkscape:cx="13.109375"
     inkscape:cy="9.859375"
     inkscape:window-width="3440"
     inkscape:window-height="1417"
     inkscape:window-x="1432"
     inkscape:window-y="1065"
     inkscape:window-maximized="1"
     inkscape:current-layer="Layer_1" />
  <path
     d="M7,11v2h-3v-2h3ZM2,20V6.243L.083,4.326c-.05,.218-.083,.442-.083,.674V22H17.757l-2-2H2Zm2-2H13.757l-2-2H4v2Zm20.007,4.593l-1.414,1.414L-.007,1.407,1.407-.007,3.414,2H21c1.654,0,3,1.346,3,3V22h-.586l.593,.593ZM5.414,4l7,7h7.586v2h-5.586l3,3h2.586v2h-.586l2,2h.586V5c0-.551-.449-1-1-1H5.414Z"
     id="path1"
     style="fill:#ffffff;fill-opacity:1" />
</svg>
