<?xml version="1.0" encoding="UTF-8" standalone="no"?>
<svg
   id="Layer_1"
   height="512"
   viewBox="0 0 24 24"
   width="512"
   data-name="Layer 1"
   version="1.1"
   sodipodi:docname="bulb.svg"
   inkscape:version="1.3 (0e150ed6c4, 2023-07-21)"
   xmlns:inkscape="http://www.inkscape.org/namespaces/inkscape"
   xmlns:sodipodi="http://sodipodi.sourceforge.net/DTD/sodipodi-0.dtd"
   xmlns="http://www.w3.org/2000/svg"
   xmlns:svg="http://www.w3.org/2000/svg">
  <defs
     id="defs1" />
  <sodipodi:namedview
     id="namedview1"
     pagecolor="#505050"
     bordercolor="#eeeeee"
     borderopacity="1"
     inkscape:showpageshadow="0"
     inkscape:pageopacity="0"
     inkscape:pagecheckerboard="0"
     inkscape:deskcolor="#505050"
     inkscape:zoom="1.2207031"
     inkscape:cx="256"
     inkscape:cy="256"
     inkscape:window-width="3440"
     inkscape:window-height="1417"
     inkscape:window-x="1432"
     inkscape:window-y="1065"
     inkscape:window-maximized="1"
     inkscape:current-layer="Layer_1" />
  <path
     d="m17.994 2.287a9 9 0 0 0 -14.92 5.538 9.807 9.807 0 0 0 3.107 8.1 5.32 5.32 0 0 1 1.819 3.875v4.2h8v-4.048a6.166 6.166 0 0 1 1.933-4.188 9 9 0 0 0 .061-13.477zm-2.039 11.221a8.637 8.637 0 0 0 -1.909 2.492h-.546v-4.3a4 4 0 0 0 2.5-3.7h-3a1 1 0 0 1 -2 0h-3a4 4 0 0 0 2.5 3.7v4.3h-.5a9.048 9.048 0 0 0 -1.773-2.269 6.941 6.941 0 0 1 -2.176-5.526 6.02 6.02 0 0 1 5.243-5.165 6 6 0 0 1 4.661 10.468z"
     id="path1"
     style="fill:#ffffff;fill-opacity:1" />
</svg>
