<?xml version="1.0" encoding="UTF-8" standalone="no"?>
<svg
   id="Isolation_Mode"
   data-name="Isolation Mode"
   viewBox="0 0 24 24"
   width="512"
   height="512"
   version="1.1"
   sodipodi:docname="compress.svg"
   inkscape:version="1.3 (0e150ed6c4, 2023-07-21)"
   xmlns:inkscape="http://www.inkscape.org/namespaces/inkscape"
   xmlns:sodipodi="http://sodipodi.sourceforge.net/DTD/sodipodi-0.dtd"
   xmlns="http://www.w3.org/2000/svg"
   xmlns:svg="http://www.w3.org/2000/svg">
  <defs
     id="defs4" />
  <sodipodi:namedview
     id="namedview4"
     pagecolor="#505050"
     bordercolor="#eeeeee"
     borderopacity="1"
     inkscape:showpageshadow="0"
     inkscape:pageopacity="0"
     inkscape:pagecheckerboard="0"
     inkscape:deskcolor="#505050"
     inkscape:zoom="1.2207031"
     inkscape:cx="256"
     inkscape:cy="256"
     inkscape:window-width="3440"
     inkscape:window-height="1417"
     inkscape:window-x="1432"
     inkscape:window-y="1065"
     inkscape:window-maximized="1"
     inkscape:current-layer="Isolation_Mode" />
  <path
     d="M5.5,5.5H0v3H6A2.5,2.5,0,0,0,8.5,6V0h-3Z"
     id="path1"
     style="fill:#ffffff;fill-opacity:1" />
  <path
     d="M15.5,18v6h3V18.5H24v-3H18A2.5,2.5,0,0,0,15.5,18Z"
     id="path2"
     style="fill:#ffffff;fill-opacity:1" />
  <path
     d="M18.5,5.5V0h-3V6A2.5,2.5,0,0,0,18,8.5h6v-3Z"
     id="path3"
     style="fill:#ffffff;fill-opacity:1" />
  <path
     d="M6,15.5H0v3H5.5V24h3V18A2.5,2.5,0,0,0,6,15.5Z"
     id="path4"
     style="fill:#ffffff;fill-opacity:1" />
</svg>
