<?xml version="1.0" encoding="UTF-8" standalone="no"?>
<svg
   id="Isolation_Mode"
   data-name="Isolation Mode"
   viewBox="0 0 24 24"
   width="512"
   height="512"
   version="1.1"
   sodipodi:docname="compress-alt.svg"
   inkscape:version="1.3 (0e150ed6c4, 2023-07-21)"
   xmlns:inkscape="http://www.inkscape.org/namespaces/inkscape"
   xmlns:sodipodi="http://sodipodi.sourceforge.net/DTD/sodipodi-0.dtd"
   xmlns="http://www.w3.org/2000/svg"
   xmlns:svg="http://www.w3.org/2000/svg">
  <defs
     id="defs4" />
  <sodipodi:namedview
     id="namedview4"
     pagecolor="#505050"
     bordercolor="#eeeeee"
     borderopacity="1"
     inkscape:showpageshadow="0"
     inkscape:pageopacity="0"
     inkscape:pagecheckerboard="0"
     inkscape:deskcolor="#505050"
     inkscape:zoom="1.6724733"
     inkscape:cx="336.32825"
     inkscape:cy="229.89904"
     inkscape:window-width="3440"
     inkscape:window-height="1417"
     inkscape:window-x="1432"
     inkscape:window-y="1065"
     inkscape:window-maximized="1"
     inkscape:current-layer="Isolation_Mode" />
  <path
     d="M2.121,0,0,2.121l3.939,3.94L2,8H7A1,1,0,0,0,8,7V2L6.061,3.939Z"
     id="path1"
     style="fill:#ffffff;fill-opacity:1" />
  <path
     d="M22,16H17a1,1,0,0,0-1,1v5l1.939-1.939L21.879,24,24,21.879l-3.939-3.94Z"
     id="path2"
     style="fill:#ffffff;fill-opacity:1" />
  <path
     d="M17,8h5L20.061,6.061,24,2.121,21.879,0l-3.94,3.939L16,2V7A1,1,0,0,0,17,8Z"
     id="path3"
     style="fill:#ffffff;fill-opacity:1" />
  <path
     d="M7,16H2l1.939,1.939L0,21.879,2.121,24l3.94-3.939L8,22V17A1,1,0,0,0,7,16Z"
     id="path4"
     style="fill:#ffffff;fill-opacity:1" />
</svg>
