<?xml version="1.0" encoding="UTF-8" standalone="no"?>
<svg
   id="Isolation_Mode"
   data-name="Isolation Mode"
   viewBox="0 0 24 24"
   width="512"
   height="512"
   version="1.1"
   sodipodi:docname="expand.svg"
   inkscape:version="1.3 (0e150ed6c4, 2023-07-21)"
   xmlns:inkscape="http://www.inkscape.org/namespaces/inkscape"
   xmlns:sodipodi="http://sodipodi.sourceforge.net/DTD/sodipodi-0.dtd"
   xmlns="http://www.w3.org/2000/svg"
   xmlns:svg="http://www.w3.org/2000/svg">
  <defs
     id="defs4" />
  <sodipodi:namedview
     id="namedview4"
     pagecolor="#505050"
     bordercolor="#eeeeee"
     borderopacity="1"
     inkscape:showpageshadow="0"
     inkscape:pageopacity="0"
     inkscape:pagecheckerboard="0"
     inkscape:deskcolor="#505050"
     inkscape:zoom="1.1826172"
     inkscape:cx="238.03138"
     inkscape:cy="264.24443"
     inkscape:window-width="3440"
     inkscape:window-height="1417"
     inkscape:window-x="1432"
     inkscape:window-y="1065"
     inkscape:window-maximized="1"
     inkscape:current-layer="Isolation_Mode" />
  <path
     d="M21,21H16v3h5.546A2.457,2.457,0,0,0,24,21.545V16H21Z"
     id="path1"
     style="fill:#ffffff;fill-opacity:1" />
  <path
     d="M0,2.455V8H3V3H8V0H2.454A2.457,2.457,0,0,0,0,2.455Z"
     id="path2"
     style="fill:#ffffff;fill-opacity:1" />
  <path
     d="M3,16H0v5.545A2.457,2.457,0,0,0,2.454,24H8V21H3Z"
     id="path3"
     style="fill:#ffffff;fill-opacity:1" />
  <path
     d="M21.546,0H16V3h5V8h3V2.455A2.457,2.457,0,0,0,21.546,0Z"
     id="path4"
     style="fill:#ffffff;fill-opacity:1" />
</svg>
