<?xml version="1.0" encoding="UTF-8" standalone="no"?>
<svg
   id="Isolation_Mode"
   data-name="Isolation Mode"
   viewBox="0 0 24 24"
   width="512"
   height="512"
   version="1.1"
   sodipodi:docname="expand-alt.svg"
   inkscape:version="1.3 (0e150ed6c4, 2023-07-21)"
   xmlns:inkscape="http://www.inkscape.org/namespaces/inkscape"
   xmlns:sodipodi="http://sodipodi.sourceforge.net/DTD/sodipodi-0.dtd"
   xmlns="http://www.w3.org/2000/svg"
   xmlns:svg="http://www.w3.org/2000/svg">
  <defs
     id="defs4" />
  <sodipodi:namedview
     id="namedview4"
     pagecolor="#505050"
     bordercolor="#eeeeee"
     borderopacity="1"
     inkscape:showpageshadow="0"
     inkscape:pageopacity="0"
     inkscape:pagecheckerboard="0"
     inkscape:deskcolor="#505050"
     inkscape:zoom="1.6724733"
     inkscape:cx="336.32824"
     inkscape:cy="229.89904"
     inkscape:window-width="3440"
     inkscape:window-height="1417"
     inkscape:window-x="1432"
     inkscape:window-y="1065"
     inkscape:window-maximized="1"
     inkscape:current-layer="Isolation_Mode" />
  <path
     d="M 5.879,8 8,5.879 4.061,1.939 6,0 H 1 A 1,1 0 0 0 0,1 V 6 L 1.939,4.061 Z"
     id="path1"
     style="fill:#ffffff;fill-opacity:1" />
  <path
     d="m 18,24 h 5 a 1,1 0 0 0 1,-1 V 18 L 22.061,19.939 18.121,16 16,18.121 l 3.939,3.94 z"
     id="path2"
     style="fill:#ffffff;fill-opacity:1" />
  <path
     d="M 23,0 H 18 L 19.939,1.939 16,5.879 18.121,8 22.061,4.061 24,6 V 1 A 1,1 0 0 0 23,0 Z"
     id="path3"
     style="fill:#ffffff;fill-opacity:1" />
  <path
     d="M 1,24 H 6 L 4.061,22.061 8,18.121 5.879,16 1.939,19.939 0,18 v 5 a 1,1 0 0 0 1,1 z"
     id="path4"
     style="fill:#ffffff;fill-opacity:1" />
</svg>
