<?xml version="1.0" encoding="UTF-8" standalone="no"?>
<svg
   id="Layer_16"
   data-name="Layer 16"
   viewBox="0 0 24 24"
   width="512"
   height="512"
   version="1.1"
   sodipodi:docname="expand-arrows-alt.svg"
   inkscape:version="1.3 (0e150ed6c4, 2023-07-21)"
   xmlns:inkscape="http://www.inkscape.org/namespaces/inkscape"
   xmlns:sodipodi="http://sodipodi.sourceforge.net/DTD/sodipodi-0.dtd"
   xmlns="http://www.w3.org/2000/svg"
   xmlns:svg="http://www.w3.org/2000/svg">
  <defs
     id="defs1" />
  <sodipodi:namedview
     id="namedview1"
     pagecolor="#505050"
     bordercolor="#eeeeee"
     borderopacity="1"
     inkscape:showpageshadow="0"
     inkscape:pageopacity="0"
     inkscape:pagecheckerboard="0"
     inkscape:deskcolor="#505050"
     inkscape:zoom="0.83623663"
     inkscape:cx="113.00629"
     inkscape:cy="386.85222"
     inkscape:window-width="3440"
     inkscape:window-height="1417"
     inkscape:window-x="1432"
     inkscape:window-y="1065"
     inkscape:window-maximized="1"
     inkscape:current-layer="Layer_16" />
  <path
     d="m 16.277527,14.187561 -2.11853,2.11853 4.778961,4.77887 L 16.000031,24 h 6.999938 A 1,1 0 0 0 23.38266,23.92392 1,1 0 0 0 23.707123,23.707123 1,1 0 0 0 23.92392,23.38266 1,1 0 0 0 24,22.999969 v -6.951965 l -2.940033,2.921997 z"
     style="fill:#ffffff"
     id="path11" />
  <path
     d="M 9.8319397,16.297028 7.7084656,14.173553 2.9319763,18.950043 0,16.000031 v 6.999938 A 1,1 0 0 0 0.07608032,23.38266 1,1 0 0 0 0.2928772,23.707123 1,1 0 0 0 0.61734009,23.92392 1,1 0 0 0 1.0000305,24 H 7.9519958 L 5.0519714,21.076996 Z"
     style="fill:#ffffff"
     id="path10" />
  <path
     d="M 1.0000305,0 A 1,1 0 0 0 0.61734009,0.07608032 1,1 0 0 0 0.2928772,0.2928772 1,1 0 0 0 0.07608032,0.61734009 1,1 0 0 0 0,1.0000305 V 7.9519958 L 2.9089966,5.0610352 7.6914368,9.8434753 9.8104248,7.7244873 5.0360413,2.9500122 7.9999695,0 Z"
     style="fill:#ffffff"
     id="path9" />
  <path
     d="M 14.174927,7.7098389 16.294556,9.8294678 21.071045,5.0529785 24,7.9999695 V 1.0000305 A 1,1 0 0 0 23.987732,0.84356689 1,1 0 0 0 23.951019,0.69094849 1,1 0 0 0 23.891052,0.54602051 1,1 0 0 0 23.809021,0.41217041 1,1 0 0 0 23.707123,0.2928772 1,1 0 0 0 23.58783,0.190979 1,1 0 0 0 23.453979,0.10894775 1,1 0 0 0 23.309052,0.04898071 1,1 0 0 0 23.156433,0.01226807 1,1 0 0 0 22.999969,0 h -6.951965 l 2.90799,2.9260254 z"
     style="fill:#ffffff"
     id="path8" />
</svg>
