<?xml version="1.0" encoding="UTF-8" standalone="no"?>
<svg
   id="Layer_1"
   data-name="Layer 1"
   viewBox="0 0 24 24"
   width="512"
   height="512"
   version="1.1"
   sodipodi:docname="lightbulb-slash.svg"
   inkscape:version="1.3 (0e150ed6c4, 2023-07-21)"
   xmlns:inkscape="http://www.inkscape.org/namespaces/inkscape"
   xmlns:sodipodi="http://sodipodi.sourceforge.net/DTD/sodipodi-0.dtd"
   xmlns="http://www.w3.org/2000/svg"
   xmlns:svg="http://www.w3.org/2000/svg">
  <defs
     id="defs1" />
  <sodipodi:namedview
     id="namedview1"
     pagecolor="#505050"
     bordercolor="#eeeeee"
     borderopacity="1"
     inkscape:showpageshadow="0"
     inkscape:pageopacity="0"
     inkscape:pagecheckerboard="0"
     inkscape:deskcolor="#505050"
     inkscape:zoom="0.83623663"
     inkscape:cx="117.78963"
     inkscape:cy="163.23131"
     inkscape:window-width="3440"
     inkscape:window-height="1417"
     inkscape:window-x="1432"
     inkscape:window-y="1065"
     inkscape:window-maximized="1"
     inkscape:current-layer="Layer_1" />
  <path
     d="M17.88,15.76s.04-.04,.06-.05c1.94-1.7,3.06-4.16,3.06-6.74s-1.09-4.99-2.99-6.69C16.1,.58,13.55-.22,11,.06c-2.23,.25-4.28,1.36-5.75,3.06L2.16,.03,.04,2.15,21.84,23.95l2.12-2.12-6.08-6.08ZM11.33,3.04c1.73-.2,3.39,.33,4.67,1.47,1.27,1.13,1.99,2.75,1.99,4.45s-.74,3.35-2.03,4.48c-.07,.06-.14,.12-.21,.19L7.38,5.25c.98-1.23,2.41-2.03,3.96-2.21Zm-.28,12.96l4.94,4.94v3.06h-8v-4.2c-.04-1.49-.7-2.89-1.82-3.87-2.19-2.03-3.33-4.94-3.11-7.91l3.66,3.66c.37,.76,.87,1.47,1.5,2.06,.71,.66,1.31,1.42,1.77,2.27h1.06Z"
     id="path1"
     style="fill:#ffffff;fill-opacity:1" />
</svg>
