<?xml version="1.0" encoding="UTF-8" standalone="no"?>
<svg
   id="Isolation_Mode"
   data-name="Isolation Mode"
   viewBox="0 0 24 24"
   width="512"
   height="512"
   version="1.1"
   sodipodi:docname="refresh.svg"
   inkscape:version="1.3 (0e150ed6c4, 2023-07-21)"
   xmlns:inkscape="http://www.inkscape.org/namespaces/inkscape"
   xmlns:sodipodi="http://sodipodi.sourceforge.net/DTD/sodipodi-0.dtd"
   xmlns="http://www.w3.org/2000/svg"
   xmlns:svg="http://www.w3.org/2000/svg">
  <defs
     id="defs2" />
  <sodipodi:namedview
     id="namedview2"
     pagecolor="#505050"
     bordercolor="#eeeeee"
     borderopacity="1"
     inkscape:showpageshadow="0"
     inkscape:pageopacity="0"
     inkscape:pagecheckerboard="0"
     inkscape:deskcolor="#505050"
     inkscape:zoom="1.1826172"
     inkscape:cx="-21.562345"
     inkscape:cy="306.52353"
     inkscape:window-width="3440"
     inkscape:window-height="1417"
     inkscape:window-x="1432"
     inkscape:window-y="1065"
     inkscape:window-maximized="1"
     inkscape:current-layer="Isolation_Mode" />
  <path
     d="M12,2.99a9.03,9.03,0,0,1,6.36,2.65L15.986,8.014h5.83a1.146,1.146,0,0,0,1.146-1.146V1.038L20.471,3.529A11.98,11.98,0,0,0,0,12H2.99A9.02,9.02,0,0,1,12,2.99Z"
     id="path1"
     style="fill:#ffffff;fill-opacity:1" />
  <path
     d="M21.01,12A8.994,8.994,0,0,1,5.64,18.36l2.374-2.374H1.993a.956.956,0,0,0-.955.955v6.021l2.491-2.491A11.98,11.98,0,0,0,24,12Z"
     id="path2"
     style="fill:#ffffff;fill-opacity:1" />
</svg>
