<?xml version="1.0" encoding="UTF-8" standalone="no"?>
<svg
   id="Isolation_Mode"
   data-name="Isolation Mode"
   viewBox="0 0 24 24"
   width="512"
   height="512"
   version="1.1"
   sodipodi:docname="seek-backward.svg"
   inkscape:version="1.3 (0e150ed6c4, 2023-07-21)"
   xmlns:inkscape="http://www.inkscape.org/namespaces/inkscape"
   xmlns:sodipodi="http://sodipodi.sourceforge.net/DTD/sodipodi-0.dtd"
   xmlns="http://www.w3.org/2000/svg"
   xmlns:svg="http://www.w3.org/2000/svg">
  <defs
     id="defs2" />
  <sodipodi:namedview
     id="namedview2"
     pagecolor="#505050"
     bordercolor="#eeeeee"
     borderopacity="1"
     inkscape:showpageshadow="0"
     inkscape:pageopacity="0"
     inkscape:pagecheckerboard="0"
     inkscape:deskcolor="#505050"
     inkscape:zoom="1.6724733"
     inkscape:cx="210.7657"
     inkscape:cy="187.44694"
     inkscape:window-width="3440"
     inkscape:window-height="1417"
     inkscape:window-x="1432"
     inkscape:window-y="1065"
     inkscape:window-maximized="1"
     inkscape:current-layer="Isolation_Mode" />
  <path
     d="m 12.393722,0.01245117 a 11.98,11.98 0 0 1 1.651063,0.19024658 11.98,11.98 0 0 1 1.608764,0.41674805 11.98,11.98 0 0 1 1.535614,0.6354675 11.98,11.98 0 0 1 1.432892,0.8418274 11.98,11.98 0 0 1 1.302613,1.032074 11.98,11.98 0 0 1 1.147247,1.2023621 11.98,11.98 0 0 1 0.969818,1.3495788 11.98,11.98 0 0 1 0.773804,1.4708862 11.98,11.98 0 0 1 0.314758,0.8747864 H 19.904434 A 9.02,9.02 0 0 0 19.856735,7.911438 9.02,9.02 0 0 0 19.117813,6.7065125 9.02,9.02 0 0 0 18.199814,5.6318665 9.02,9.02 0 0 0 17.125168,4.7138672 9.02,9.02 0 0 0 15.920242,3.9749451 9.02,9.02 0 0 0 14.6147,3.4333191 9.02,9.02 0 0 0 13.240585,3.1022644 9.02,9.02 0 0 0 11.83168,2.9900208 9.03,9.03 0 0 0 10.423965,3.1051941 9.03,9.03 0 0 0 9.0514983,3.438446 9.03,9.03 0 0 0 7.7477872,3.98172 9.03,9.03 0 0 0 6.5446932,4.7215576 9.03,9.03 0 0 0 5.4716952,5.6400146 l 2.373962,2.3739625 H 2.0156702 A 1.146,1.146 0 0 1 1.5771332,7.9267271 1.146,1.146 0 0 1 1.2053372,7.6783445 1.146,1.146 0 0 1 0.95695525,7.3065489 1.146,1.146 0 0 1 0.86970525,6.8680113 V 1.0380249 L 3.3606723,3.5289917 A 11.98,11.98 0 0 1 4.6119232,2.4352112 11.98,11.98 0 0 1 6.0025173,1.525177 11.98,11.98 0 0 1 7.5056302,0.81628418 11.98,11.98 0 0 1 9.0924222,0.32226563 11.98,11.98 0 0 1 10.732315,0.05264282 11.98,11.98 0 0 1 12.393722,0.01245117 Z"
     style="fill:#ffffff"
     id="path2" />
</svg>
