<?xml version="1.0" encoding="UTF-8" standalone="no"?>
<svg
   id="Isolation_Mode"
   data-name="Isolation Mode"
   viewBox="0 0 24 24"
   width="512"
   height="512"
   version="1.1"
   sodipodi:docname="seek-forward.svg"
   inkscape:version="1.3 (0e150ed6c4, 2023-07-21)"
   xmlns:inkscape="http://www.inkscape.org/namespaces/inkscape"
   xmlns:sodipodi="http://sodipodi.sourceforge.net/DTD/sodipodi-0.dtd"
   xmlns="http://www.w3.org/2000/svg"
   xmlns:svg="http://www.w3.org/2000/svg">
  <defs
     id="defs2" />
  <sodipodi:namedview
     id="namedview2"
     pagecolor="#505050"
     bordercolor="#eeeeee"
     borderopacity="1"
     inkscape:showpageshadow="0"
     inkscape:pageopacity="0"
     inkscape:pagecheckerboard="0"
     inkscape:deskcolor="#505050"
     inkscape:zoom="1.6724733"
     inkscape:cx="210.7657"
     inkscape:cy="187.44694"
     inkscape:window-width="3440"
     inkscape:window-height="1417"
     inkscape:window-x="1432"
     inkscape:window-y="1065"
     inkscape:window-maximized="1"
     inkscape:current-layer="Isolation_Mode" />
  <path
     d="M 11.606278,0.01245117 A 11.98,11.98 0 0 0 9.9552156,0.20269775 11.98,11.98 0 0 0 8.3464509,0.6194458 11.98,11.98 0 0 0 6.8108368,1.2549133 11.98,11.98 0 0 0 5.3779449,2.0967407 11.98,11.98 0 0 0 4.0753326,3.1288147 11.98,11.98 0 0 0 2.9280854,4.3311768 11.98,11.98 0 0 0 1.9582673,5.6807556 11.98,11.98 0 0 0 1.1844636,7.1516418 11.98,11.98 0 0 0 0.86970525,8.0264282 H 4.0955658 A 9.02,9.02 0 0 1 4.1432648,7.911438 9.02,9.02 0 0 1 4.882187,6.7065125 9.02,9.02 0 0 1 5.8001863,5.6318665 9.02,9.02 0 0 1 6.8748322,4.7138672 9.02,9.02 0 0 1 8.0797578,3.9749451 9.02,9.02 0 0 1 9.3852998,3.4333191 9.02,9.02 0 0 1 10.759415,3.1022644 9.02,9.02 0 0 1 12.16832,2.9900208 a 9.03,9.03 0 0 1 1.407715,0.1151733 9.03,9.03 0 0 1 1.372467,0.3332519 9.03,9.03 0 0 1 1.303711,0.543274 9.03,9.03 0 0 1 1.203094,0.7398376 9.03,9.03 0 0 1 1.072998,0.918457 l -2.373962,2.3739625 h 5.829987 a 1.146,1.146 0 0 0 0.438537,-0.08725 1.146,1.146 0 0 0 0.371796,-0.2483826 1.146,1.146 0 0 0 0.248382,-0.3717956 1.146,1.146 0 0 0 0.08725,-0.4385376 V 1.0380249 L 20.639328,3.5289917 A 11.98,11.98 0 0 0 19.388077,2.4352112 11.98,11.98 0 0 0 17.997483,1.525177 11.98,11.98 0 0 0 16.49437,0.81628418 11.98,11.98 0 0 0 14.907578,0.32226563 11.98,11.98 0 0 0 13.267685,0.05264282 11.98,11.98 0 0 0 11.606278,0.01245117 Z"
     style="fill:#ffffff"
     id="path2" />
</svg>
