<?xml version="1.0" encoding="UTF-8" standalone="no"?>
<svg
   id="Layer_1"
   data-name="Layer 1"
   viewBox="0 0 24 24"
   version="1.1"
   sodipodi:docname="subtitles-slash.svg"
   inkscape:version="1.3 (0e150ed6c4, 2023-07-21)"
   xmlns:inkscape="http://www.inkscape.org/namespaces/inkscape"
   xmlns:sodipodi="http://sodipodi.sourceforge.net/DTD/sodipodi-0.dtd"
   xmlns="http://www.w3.org/2000/svg"
   xmlns:svg="http://www.w3.org/2000/svg">
  <defs
     id="defs1" />
  <sodipodi:namedview
     id="namedview1"
     pagecolor="#505050"
     bordercolor="#eeeeee"
     borderopacity="1"
     inkscape:showpageshadow="0"
     inkscape:pageopacity="0"
     inkscape:pagecheckerboard="0"
     inkscape:deskcolor="#505050"
     inkscape:zoom="17.839715"
     inkscape:cx="13.705376"
     inkscape:cy="8.5483429"
     inkscape:window-width="3440"
     inkscape:window-height="1417"
     inkscape:window-x="1432"
     inkscape:window-y="1065"
     inkscape:window-maximized="1"
     inkscape:current-layer="Layer_1" />
  <path
     d="M14.05,19l3,3H0V5.5c0-.171,.027-.335,.051-.5l2.949,2.949v11.05H14.05Zm-9.05-2h7.05l-3-3H5v3ZM24,5.5V21.8l-2.161,2.161L.04,2.161,2.161,.04l1.96,1.96H20.5c1.93,0,3.5,1.57,3.5,3.5Zm-3,0c0-.276-.224-.5-.5-.5H7.121l4,4h7.879v3h-4.879l2,2h2.879v2.879l2,2V5.5ZM5,12h2.05l-2.05-2.05v2.05Z"
     id="path1"
     style="fill:#ffffff;fill-opacity:1" />
</svg>
