<?xml version="1.0" encoding="UTF-8" standalone="no"?>
<svg
   id="Isolation_Mode"
   data-name="Isolation Mode"
   viewBox="0 0 24 24"
   width="512"
   height="512"
   version="1.1"
   sodipodi:docname="volume-up.svg"
   inkscape:version="1.3 (0e150ed6c4, 2023-07-21)"
   xmlns:inkscape="http://www.inkscape.org/namespaces/inkscape"
   xmlns:sodipodi="http://sodipodi.sourceforge.net/DTD/sodipodi-0.dtd"
   xmlns="http://www.w3.org/2000/svg"
   xmlns:svg="http://www.w3.org/2000/svg">
  <defs
     id="defs3" />
  <sodipodi:namedview
     id="namedview3"
     pagecolor="#505050"
     bordercolor="#eeeeee"
     borderopacity="1"
     inkscape:showpageshadow="0"
     inkscape:pageopacity="0"
     inkscape:pagecheckerboard="0"
     inkscape:deskcolor="#505050"
     inkscape:zoom="0.59130859"
     inkscape:cx="10.992568"
     inkscape:cy="158.12386"
     inkscape:window-width="3440"
     inkscape:window-height="1417"
     inkscape:window-x="1432"
     inkscape:window-y="1065"
     inkscape:window-maximized="1"
     inkscape:current-layer="Isolation_Mode" />
  <path
     d="M2,5.5a2,2,0,0,0-2,2v9a2,2,0,0,0,2,2H5.214L13,23.635V.365L5.214,5.5Zm8,.436V18.064L6.114,15.5H3v-7H6.114Z"
     id="path1"
     style="fill:#ffffff;fill-opacity:1" />
  <path
     d="m 15,8.318 v 7.364 a 3.682,3.682 0 0 0 0,-7.364 z"
     id="path2"
     style="fill:#ffffff;fill-opacity:1" />
  <path
     d="m 14.863,2.8635 v 3 a 6.137,6.137 0 1 1 0,12.273 v 3 a 9.137,9.137 0 1 0 0,-18.273 z"
     id="path3"
     style="fill:#ffffff;fill-opacity:1" />
  <path
     style="fill:none;stroke:#ffffff;stroke-width:2.75643;stroke-linecap:butt;stroke-dasharray:none;paint-order:markers stroke fill"
     id="path4"
     sodipodi:type="arc"
     sodipodi:cx="14.826468"
     sodipodi:cy="12"
     sodipodi:rx="13.036585"
     sodipodi:ry="13.036585"
     sodipodi:start="4.712389"
     sodipodi:end="1.5707963"
     sodipodi:arc-type="arc"
     d="M 14.826468,-1.0365849 A 13.036585,13.036585 0 0 1 27.863053,12 13.036585,13.036585 0 0 1 14.826468,25.036585"
     sodipodi:open="true" />
</svg>
