<?xml version="1.0" encoding="UTF-8" standalone="no"?>
<svg
   id="Layer_1"
   data-name="Layer 1"
   viewBox="0 0 24 24"
   width="512"
   height="512"
   version="1.1"
   sodipodi:docname="volume-mute.svg"
   inkscape:version="1.3 (0e150ed6c4, 2023-07-21)"
   xmlns:inkscape="http://www.inkscape.org/namespaces/inkscape"
   xmlns:sodipodi="http://sodipodi.sourceforge.net/DTD/sodipodi-0.dtd"
   xmlns="http://www.w3.org/2000/svg"
   xmlns:svg="http://www.w3.org/2000/svg">
  <defs
     id="defs1" />
  <sodipodi:namedview
     id="namedview1"
     pagecolor="#505050"
     bordercolor="#eeeeee"
     borderopacity="1"
     inkscape:showpageshadow="0"
     inkscape:pageopacity="0"
     inkscape:pagecheckerboard="0"
     inkscape:deskcolor="#505050"
     inkscape:zoom="0.83623663"
     inkscape:cx="173.99381"
     inkscape:cy="531.54811"
     inkscape:window-width="3440"
     inkscape:window-height="1417"
     inkscape:window-x="1432"
     inkscape:window-y="1065"
     inkscape:window-maximized="1"
     inkscape:current-layer="Layer_1" />
  <path
     d="m2.123,5.5c-1.171,0-2.123.952-2.123,2.123v8.754c0,1.171.952,2.123,2.123,2.123h3.144l7.733,5.109V.391l-7.733,5.109h-3.144Zm7.877.469v12.062l-3.832-2.531h-3.168v-7h3.168l3.832-2.531Zm11.146,6.031l2.453,2.453-2.121,2.121-2.453-2.453-2.453,2.453-2.121-2.121,2.453-2.453-2.453-2.453,2.121-2.121,2.453,2.453,2.453-2.453,2.121,2.121-2.453,2.453Z"
     id="path1"
     style="fill:#ffffff;fill-opacity:1" />
</svg>
