<?xml version="1.0" encoding="UTF-8" standalone="no"?>
<svg
   id="Isolation_Mode"
   data-name="Isolation Mode"
   viewBox="0 0 24 24"
   width="512"
   height="512"
   version="1.1"
   sodipodi:docname="volume.svg"
   inkscape:version="1.3 (0e150ed6c4, 2023-07-21)"
   xmlns:inkscape="http://www.inkscape.org/namespaces/inkscape"
   xmlns:sodipodi="http://sodipodi.sourceforge.net/DTD/sodipodi-0.dtd"
   xmlns="http://www.w3.org/2000/svg"
   xmlns:svg="http://www.w3.org/2000/svg">
  <defs
     id="defs3" />
  <sodipodi:namedview
     id="namedview3"
     pagecolor="#505050"
     bordercolor="#eeeeee"
     borderopacity="1"
     inkscape:showpageshadow="0"
     inkscape:pageopacity="0"
     inkscape:pagecheckerboard="0"
     inkscape:deskcolor="#505050"
     inkscape:zoom="1.6724733"
     inkscape:cx="257.40322"
     inkscape:cy="237.07404"
     inkscape:window-width="3440"
     inkscape:window-height="1417"
     inkscape:window-x="1432"
     inkscape:window-y="1065"
     inkscape:window-maximized="1"
     inkscape:current-layer="Isolation_Mode" />
  <path
     d="M2,5.5a2,2,0,0,0-2,2v9a2,2,0,0,0,2,2H5.214L13,23.635V.365L5.214,5.5Zm8,.436V18.064L6.114,15.5H3v-7H6.114Z"
     id="path1"
     style="fill:#ffffff;fill-opacity:1" />
  <path
     d="M15,8.821v7.364a3.682,3.682,0,0,0,0-7.364Z"
     id="path2"
     style="fill:#ffffff;fill-opacity:1" />
  <path
     d="M14.863,3.367v3a6.137,6.137,0,1,1,0,12.273v3a9.137,9.137,0,1,0,0-18.273Z"
     id="path3"
     style="fill:#ffffff;fill-opacity:1" />
</svg>
